<svg width="629" height="892" viewBox="0 0 629 892" fill="none" xmlns="http://www.w3.org/2000/svg">
<rect x="2" width="625" height="892" rx="42" fill="#020712"/>
<g opacity="0.1" filter="url(#filter0_f_704_1300)">
<path d="M147 397C169.091 397 187 379.091 187 357C187 334.909 169.091 317 147 317C124.909 317 107 334.909 107 357C107 379.091 124.909 397 147 397Z" fill="#C3A634"/>
<path fill-rule="evenodd" clip-rule="evenodd" d="M140.12 353.525H150.905V359.24H140.12V371.285H146.922C149.615 371.285 151.818 370.923 153.533 370.193C155.248 369.465 156.593 368.457 157.57 367.167C158.57 365.826 159.25 364.274 159.56 362.63C159.921 360.775 160.097 358.889 160.085 357C160.097 355.111 159.921 353.225 159.56 351.37C159.251 349.726 158.57 348.174 157.57 346.832C156.593 345.542 155.245 344.535 153.533 343.807C151.818 343.077 149.615 342.715 146.922 342.715H140.12V353.528V353.525ZM133.205 359.24H129.5V353.528H133.205V337H149.578C152.603 337 155.22 337.525 157.433 338.567C159.645 339.615 161.45 341.042 162.852 342.855C164.252 344.665 165.295 346.785 165.977 349.213C166.66 351.64 167 354.237 167 357C167.017 359.631 166.672 362.251 165.975 364.787C165.295 367.212 164.253 369.335 162.85 371.145C161.45 372.958 159.645 374.385 157.433 375.432C155.22 376.477 152.6 377 149.578 377H133.205V359.24Z" fill="white"/>
</g>
<g opacity="0.1" filter="url(#filter1_f_704_1300)">
<path d="M89 598C111.091 598 129 580.091 129 558C129 535.909 111.091 518 89 518C66.9086 518 49 535.909 49 558C49 580.091 66.9086 598 89 598Z" fill="#C3A634"/>
<path fill-rule="evenodd" clip-rule="evenodd" d="M82.12 554.525H92.905V560.24H82.12V572.285H88.9225C91.615 572.285 93.8175 571.923 95.5325 571.193C97.2475 570.465 98.5925 569.457 99.57 568.167C100.57 566.826 101.25 565.274 101.56 563.63C101.921 561.775 102.097 559.889 102.085 558C102.097 556.111 101.921 554.225 101.56 552.37C101.251 550.726 100.57 549.174 99.57 547.832C98.5925 546.542 97.245 545.535 95.5325 544.807C93.8175 544.077 91.615 543.715 88.9225 543.715H82.12V554.528V554.525ZM75.205 560.24H71.5V554.528H75.205V538H91.5775C94.6025 538 97.22 538.525 99.4325 539.567C101.645 540.615 103.45 542.042 104.852 543.855C106.252 545.665 107.295 547.785 107.977 550.213C108.66 552.64 109 555.237 109 558C109.017 560.631 108.672 563.251 107.975 565.787C107.295 568.212 106.253 570.335 104.85 572.145C103.45 573.958 101.645 575.385 99.4325 576.432C97.22 577.477 94.6 578 91.5775 578H75.205V560.24Z" fill="white"/>
</g>
<g opacity="0.1" filter="url(#filter2_f_704_1300)">
<path d="M509 397C531.092 397 549 379.092 549 357C549 334.908 531.092 317 509 317C486.908 317 469 334.908 469 357C469 379.092 486.908 397 509 397Z" fill="#2B6DEF"/>
<path fill-rule="evenodd" clip-rule="evenodd" d="M525.668 337L517.345 341.799H517.337V351.398L517.308 351.403L492.334 337L484.004 341.8L484 341.798V371.642L492.329 376.444L492.334 376.406V376.442L500.667 371.642V361.008L508.982 365.8L508.987 365.81L508.993 365.806L517.338 361.029V371.646L525.632 376.426V376.451L525.653 376.438L525.668 376.447L525.68 376.423L533.963 371.651V341.825L534.001 341.803L525.668 337Z" fill="white"/>
</g>
<g opacity="0.1" filter="url(#filter3_f_704_1300)">
<path d="M325 812C347.092 812 365 794.092 365 772C365 749.908 347.092 732 325 732C302.908 732 285 749.908 285 772C285 794.092 302.908 812 325 812Z" fill="#2B6DEF"/>
<path fill-rule="evenodd" clip-rule="evenodd" d="M341.668 752L333.345 756.799H333.337V766.398L333.308 766.403L308.334 752L300.004 756.8L300 756.798V786.642L308.329 791.444L308.334 791.406V791.442L316.667 786.642V776.008L324.982 780.8L324.987 780.81L324.993 780.806L333.338 776.029V786.646L341.632 791.426V791.451L341.653 791.438L341.668 791.447L341.68 791.423L349.963 786.651V756.825L350.001 756.803L341.668 752Z" fill="white"/>
</g>
<g opacity="0.1" filter="url(#filter4_f_704_1300)">
<path d="M302 161C324.091 161 342 143.091 342 121C342 98.9086 324.091 81 302 81C279.909 81 262 98.9086 262 121C262 143.091 279.909 161 302 161Z" fill="#627EEA"/>
<path d="M303.245 91V113.175L321.988 121.55L303.245 91Z" fill="white" fill-opacity="0.602"/>
<path d="M303.245 91L284.5 121.55L303.245 113.175V91Z" fill="white"/>
<path d="M303.245 135.921V150.988L322 125.041L303.245 135.921Z" fill="white" fill-opacity="0.602"/>
<path d="M303.245 150.988V135.918L284.5 125.041L303.245 150.988Z" fill="white"/>
<path d="M303.245 132.433L321.988 121.551L303.245 113.181V132.433Z" fill="white" fill-opacity="0.2"/>
<path d="M284.5 121.551L303.245 132.433V113.181L284.5 121.551Z" fill="white" fill-opacity="0.602"/>
</g>
<g opacity="0.1" filter="url(#filter5_f_704_1300)">
<path d="M130 132C152.091 132 170 114.091 170 92C170 69.9086 152.091 52 130 52C107.909 52 90 69.9086 90 92C90 114.091 107.909 132 130 132Z" fill="#2775C9"/>
<path d="M129.375 120.75C113.15 120.75 100 107.6 100 91.375C100 75.15 113.15 62 129.375 62C145.6 62 158.75 75.15 158.75 91.375C158.75 99.1657 155.655 106.637 150.146 112.146C144.637 117.655 137.166 120.75 129.375 120.75ZM127.625 80.475C126.018 80.5547 124.498 81.2323 123.365 82.3748C122.232 83.5173 121.567 85.0422 121.5 86.65C121.5 89.675 123.35 91.65 127.275 92.475L130.025 93.125C132.7 93.75 133.8 94.65 133.8 96.175C133.8 97.7 131.875 99.2 129.375 99.2C128.487 99.2814 127.594 99.1112 126.798 98.7089C126.002 98.3066 125.336 97.6884 124.875 96.925C124.738 96.6353 124.523 96.3902 124.253 96.2177C123.983 96.0452 123.67 95.9524 123.35 95.95H121.875C121.762 95.971 121.653 96.0142 121.557 96.0772C121.46 96.1402 121.377 96.2216 121.312 96.3169C121.247 96.4122 121.201 96.5193 121.178 96.6323C121.154 96.7452 121.153 96.8617 121.175 96.975C121.534 98.4414 122.37 99.7473 123.55 100.688C124.731 101.629 126.19 102.152 127.7 102.175V104.275C127.7 104.742 127.886 105.191 128.216 105.521C128.547 105.852 128.995 106.037 129.462 106.037C129.93 106.037 130.378 105.852 130.709 105.521C131.039 105.191 131.225 104.742 131.225 104.275V102.15C132.932 102.131 134.564 101.446 135.773 100.241C136.983 99.0362 137.674 97.4069 137.7 95.7C137.7 92.525 135.875 90.7 131.55 89.775L129.05 89.225C126.55 88.6 125.375 87.775 125.375 86.375C125.375 84.975 126.875 83.425 129.375 83.425C130.162 83.3428 130.957 83.4902 131.662 83.8496C132.367 84.2089 132.954 84.7647 133.35 85.45C133.511 85.7922 133.765 86.0819 134.084 86.2854C134.402 86.489 134.772 86.598 135.15 86.6H136.325C136.592 86.5347 136.823 86.3671 136.968 86.1334C137.113 85.8996 137.16 85.6183 137.1 85.35C136.761 83.9961 136.004 82.7837 134.935 81.8859C133.867 80.988 132.542 80.4505 131.15 80.35V78.625C131.15 78.1576 130.964 77.7093 130.634 77.3787C130.303 77.0482 129.855 76.8625 129.388 76.8625C128.92 76.8625 128.472 77.0482 128.141 77.3787C127.811 77.7093 127.625 78.1576 127.625 78.625V80.475ZM107.35 91.375C107.353 95.9802 108.802 100.468 111.494 104.205C114.185 107.942 117.983 110.738 122.35 112.2H122.7C122.998 112.2 123.285 112.081 123.495 111.87C123.706 111.66 123.825 111.373 123.825 111.075V110.55C123.826 110.085 123.688 109.629 123.43 109.242C123.172 108.855 122.805 108.553 122.375 108.375C118.974 107.002 116.061 104.644 114.009 101.604C111.958 98.564 110.862 94.9801 110.862 91.3125C110.862 87.6449 111.958 84.061 114.009 81.0208C116.061 77.9806 118.974 75.6228 122.375 74.25C122.803 74.0762 123.169 73.7789 123.428 73.3959C123.686 73.013 123.824 72.5619 123.825 72.1V71.525C123.827 71.3562 123.788 71.1894 123.711 71.039C123.634 70.8885 123.523 70.7586 123.385 70.6605C123.248 70.5624 123.089 70.4988 122.922 70.4752C122.755 70.4516 122.584 70.4687 122.425 70.525C118.04 71.9752 114.223 74.7703 111.517 78.5131C108.811 82.256 107.353 86.7563 107.35 91.375ZM151.4 91.375C151.392 86.7741 149.94 82.2918 147.249 78.56C144.558 74.8283 140.763 72.0353 136.4 70.575H136.025C135.713 70.575 135.415 70.6988 135.194 70.9191C134.974 71.1395 134.85 71.4384 134.85 71.75V72.125C134.86 72.6072 135.009 73.0761 135.28 73.4754C135.551 73.8746 135.931 74.187 136.375 74.375C139.768 75.7518 142.673 78.1097 144.719 81.1471C146.764 84.1845 147.857 87.7631 147.857 91.425C147.857 95.0869 146.764 98.6655 144.719 101.703C142.673 104.74 139.768 107.098 136.375 108.475C135.939 108.665 135.567 108.975 135.301 109.369C135.036 109.763 134.888 110.225 134.875 110.7V111.125C134.877 111.31 134.923 111.493 135.009 111.657C135.095 111.821 135.219 111.962 135.37 112.07C135.521 112.177 135.695 112.247 135.879 112.274C136.062 112.301 136.249 112.284 136.425 112.225C140.791 110.758 144.586 107.955 147.273 104.214C149.961 100.473 151.404 95.9814 151.4 91.375Z" fill="white"/>
</g>
<g opacity="0.1" filter="url(#filter6_f_704_1300)">
<path d="M509 587C531.091 587 549 569.091 549 547C549 524.909 531.091 507 509 507C486.909 507 469 524.909 469 547C469 569.091 486.909 587 509 587Z" fill="#627EEA"/>
<path d="M510.245 517V539.175L528.988 547.55L510.245 517Z" fill="white" fill-opacity="0.602"/>
<path d="M510.245 517L491.5 547.55L510.245 539.175V517Z" fill="white"/>
<path d="M510.245 561.921V576.989L529 551.041L510.245 561.921Z" fill="white" fill-opacity="0.602"/>
<path d="M510.245 576.989V561.919L491.5 551.041L510.245 576.989Z" fill="white"/>
<path d="M510.245 558.432L528.988 547.55L510.245 539.18V558.432Z" fill="white" fill-opacity="0.2"/>
<path d="M491.5 547.55L510.245 558.432V539.18L491.5 547.55Z" fill="white" fill-opacity="0.602"/>
</g>
<g opacity="0.1" filter="url(#filter7_f_704_1300)">
<path d="M89 849C111.091 849 129 831.091 129 809C129 786.909 111.091 769 89 769C66.9086 769 49 786.909 49 809C49 831.091 66.9086 849 89 849Z" fill="#2775C9"/>
<path d="M88.375 837.75C72.15 837.75 59 824.6 59 808.375C59 792.15 72.15 779 88.375 779C104.6 779 117.75 792.15 117.75 808.375C117.75 816.166 114.655 823.637 109.146 829.146C103.637 834.655 96.1657 837.75 88.375 837.75ZM86.625 797.475C85.0178 797.555 83.4984 798.232 82.3651 799.375C81.2319 800.517 80.5666 802.042 80.5 803.65C80.5 806.675 82.35 808.65 86.275 809.475L89.025 810.125C91.7 810.75 92.8 811.65 92.8 813.175C92.8 814.7 90.875 816.2 88.375 816.2C87.487 816.281 86.594 816.111 85.7982 815.709C85.0024 815.307 84.3359 814.688 83.875 813.925C83.7384 813.635 83.5229 813.39 83.2531 813.218C82.9833 813.045 82.6702 812.952 82.35 812.95H80.875C80.7616 812.971 80.6534 813.014 80.5568 813.077C80.4601 813.14 80.3769 813.222 80.3118 813.317C80.2467 813.412 80.2012 813.519 80.1777 813.632C80.1542 813.745 80.1533 813.862 80.175 813.975C80.5343 815.441 81.3697 816.747 82.5504 817.688C83.731 818.629 85.1904 819.152 86.7 819.175V821.275C86.7 821.742 86.8857 822.191 87.2162 822.521C87.5468 822.852 87.9951 823.037 88.4625 823.037C88.9299 823.037 89.3782 822.852 89.7088 822.521C90.0393 822.191 90.225 821.742 90.225 821.275V819.15C91.932 819.131 93.5639 818.446 94.7733 817.241C95.9828 816.036 96.674 814.407 96.7 812.7C96.7 809.525 94.875 807.7 90.55 806.775L88.05 806.225C85.55 805.6 84.375 804.775 84.375 803.375C84.375 801.975 85.875 800.425 88.375 800.425C89.1623 800.343 89.9567 800.49 90.662 800.85C91.3674 801.209 91.9536 801.765 92.35 802.45C92.5107 802.792 92.765 803.082 93.0836 803.285C93.4022 803.489 93.772 803.598 94.15 803.6H95.325C95.5921 803.535 95.823 803.367 95.9679 803.133C96.1128 802.9 96.1603 802.618 96.1 802.35C95.7613 800.996 95.0037 799.784 93.9352 798.886C92.8667 797.988 91.542 797.45 90.15 797.35V795.625C90.15 795.158 89.9643 794.709 89.6338 794.379C89.3032 794.048 88.8549 793.862 88.3875 793.862C87.9201 793.862 87.4718 794.048 87.1412 794.379C86.8107 794.709 86.625 795.158 86.625 795.625V797.475ZM66.35 808.375C66.3529 812.98 67.8024 817.468 70.494 821.205C73.1855 824.942 76.983 827.738 81.35 829.2H81.7C81.9984 829.2 82.2845 829.081 82.4955 828.87C82.7065 828.66 82.825 828.373 82.825 828.075V827.55C82.8258 827.085 82.6885 826.629 82.4303 826.242C82.1722 825.855 81.8049 825.553 81.375 825.375C77.974 824.002 75.0609 821.644 73.0095 818.604C70.9581 815.564 69.862 811.98 69.862 808.313C69.862 804.645 70.9581 801.061 73.0095 798.021C75.0609 794.981 77.974 792.623 81.375 791.25C81.8029 791.076 82.1693 790.779 82.4276 790.396C82.6858 790.013 82.8242 789.562 82.825 789.1V788.525C82.8266 788.356 82.7875 788.189 82.711 788.039C82.6344 787.888 82.5227 787.759 82.3853 787.661C82.248 787.562 82.0889 787.499 81.9218 787.475C81.7546 787.452 81.5842 787.469 81.425 787.525C77.0399 788.975 73.2232 791.77 70.5171 795.513C67.8109 799.256 66.3529 803.756 66.35 808.375ZM110.4 808.375C110.392 803.774 108.94 799.292 106.249 795.56C103.558 791.828 99.763 789.035 95.4 787.575H95.025C94.7134 787.575 94.4145 787.699 94.1941 787.919C93.9738 788.14 93.85 788.438 93.85 788.75V789.125C93.8601 789.607 94.0094 790.076 94.28 790.475C94.5506 790.875 94.9309 791.187 95.375 791.375C98.7682 792.752 101.673 795.11 103.719 798.147C105.764 801.184 106.857 804.763 106.857 808.425C106.857 812.087 105.764 815.666 103.719 818.703C101.673 821.74 98.7682 824.098 95.375 825.475C94.9393 825.665 94.5668 825.975 94.3012 826.369C94.0355 826.763 93.8877 827.225 93.875 827.7V828.125C93.8771 828.31 93.9231 828.493 94.0091 828.657C94.0951 828.821 94.2187 828.962 94.3699 829.07C94.521 829.177 94.6954 829.247 94.8788 829.274C95.0622 829.301 95.2493 829.284 95.425 829.225C99.7914 827.758 103.586 824.955 106.273 821.214C108.961 817.473 110.404 812.981 110.4 808.375Z" fill="white"/>
</g>
<path d="M2 42C2 18.804 20.804 0 44 0H585C608.196 0 627 18.804 627 42V446H2V42Z" fill="#1B2D42" fill-opacity="0.2"/>
<path d="M2 446H627V850C627 873.196 608.196 892 585 892H44C20.804 892 2 873.196 2 850V446Z" fill="#FF433E" fill-opacity="0.1"/>
<path d="M253.837 435.739H206.952C201.456 435.739 197 440.184 197 445.667C197 451.15 201.456 455.594 206.952 455.594H253.837C259.333 455.594 263.789 451.15 263.789 445.667C263.789 440.184 259.333 435.739 253.837 435.739Z" fill="white"/>
<path d="M411.047 435.739H364.162C358.666 435.739 354.21 439.962 354.21 445.17C354.21 450.379 358.666 454.602 364.162 454.602H411.047C416.543 454.602 420.999 450.379 420.999 445.17C420.999 439.962 416.543 435.739 411.047 435.739Z" fill="white"/>
<path d="M357.293 445.667C357.293 470.905 335.883 491.333 309.514 491.333C283.144 491.333 261.733 470.905 261.733 445.667C261.733 420.428 283.144 400 309.514 400C335.883 400 357.293 420.428 357.293 445.667Z" stroke="white" stroke-width="15"/>
<path d="M2 444.5H248" stroke="white" stroke-opacity="0.5" stroke-width="3" stroke-linecap="round" stroke-dasharray="6 6"/>
<path d="M381 446H627" stroke="white" stroke-opacity="0.5" stroke-width="3" stroke-linecap="round" stroke-dasharray="6 6"/>
<g opacity="0.7">
<path d="M549.24 832.588H558.854L542.115 874.111H531.018L514.279 832.588H523.893L536.531 864.104L549.24 832.588Z" fill="#FF433E"/>
<path d="M436.751 824H428V874.118H436.751V824Z" fill="#FF433E"/>
<path d="M460.714 874.125L441.516 849.059L460.714 824.007H471.698L452.769 849.059L471.698 874.125H460.714Z" fill="#FF433E"/>
<path d="M492.662 831.487C483.077 831.487 475.853 836.78 475.33 844.641L475.274 845.559H483.869L484.01 844.881C484.802 841.183 487.827 839.151 492.507 839.151C497.596 839.151 500.508 841.706 500.508 846.166V848.734L489.736 849.341C480.038 849.906 474.171 854.648 474.171 862.015C474.171 869.778 480.01 875 488.591 875C493.708 875 497.441 873.603 500.48 870.498V874.308H509.203V845.516C509.189 836.992 502.601 831.487 492.662 831.487ZM500.508 855.495V858.078C499.943 863.709 496.041 867.252 490.047 867.548C487.743 867.661 485.749 867.04 484.434 865.798C483.402 864.824 482.865 863.525 482.865 862.044C482.865 858.741 485.693 856.652 490.627 856.342L500.508 855.495Z" fill="#FF433E"/>
<path d="M581.119 831.487C571.534 831.487 564.31 836.78 563.787 844.641L563.731 845.559H572.326L572.467 844.881C573.259 841.183 576.284 839.151 580.964 839.151C586.053 839.151 588.965 841.706 588.965 846.166V848.734L578.193 849.341C568.495 849.906 562.628 854.648 562.628 862.015C562.628 869.778 568.467 875 577.048 875C582.165 875 585.898 873.603 588.937 870.498V874.308H597.66V845.516C597.646 836.992 591.058 831.487 581.119 831.487ZM588.965 855.495V858.078C588.4 863.709 584.498 867.252 578.504 867.548C576.2 867.661 574.206 867.04 572.892 865.798C571.859 864.824 571.322 863.525 571.322 862.044C571.322 858.741 574.15 856.652 579.084 856.342L588.965 855.495Z" fill="#FF433E"/>
</g>
<g opacity="0.9">
<path d="M520.999 68.4897H525.164V78.4647H525.234C525.794 77.578 526.57 76.8781 527.562 76.3649C528.553 75.8514 529.703 75.5948 531.009 75.5948C532.036 75.5948 533.062 75.7813 534.089 76.1546C535.116 76.528 536.032 77.0938 536.837 77.8523C537.642 78.6107 538.295 79.5556 538.797 80.6874C539.299 81.819 539.549 83.1549 539.549 84.6948C539.549 86.0015 539.322 87.2149 538.867 88.335C538.412 89.455 537.77 90.4175 536.942 91.2225C536.113 92.0276 535.127 92.6576 533.984 93.1125C532.841 93.5675 531.592 93.7951 530.239 93.7951C528.862 93.7951 527.608 93.5792 526.477 93.1475C525.345 92.7158 524.377 92.0975 523.572 91.2924C522.767 90.4874 522.137 89.5132 521.682 88.3698C521.226 87.2265 520.999 85.9549 520.999 84.555V68.4897ZM530.239 89.9099C531.779 89.9099 533.016 89.426 533.949 88.4575C534.883 87.4891 535.349 86.235 535.349 84.6948C535.349 83.1549 534.883 81.9006 533.949 80.9324C533.016 79.9639 531.779 79.4797 530.239 79.4797C528.699 79.4797 527.468 79.9639 526.547 80.9324C525.625 81.9006 525.164 83.1549 525.164 84.6948C525.164 86.235 525.625 87.4891 526.547 88.4575C527.468 89.426 528.699 89.9099 530.239 89.9099ZM555.195 90.8199H555.125C554.611 91.6834 553.923 92.3601 553.06 92.85C552.196 93.3399 551.193 93.5851 550.05 93.5851C549.046 93.5851 548.078 93.416 547.144 93.0776C546.211 92.7394 545.383 92.22 544.659 91.52C543.936 90.8199 543.359 89.9159 542.927 88.8074C542.495 87.6991 542.279 86.3749 542.279 84.8349V76.0498H546.445V84.8349C546.445 86.4916 546.841 87.7165 547.634 88.5098C548.428 89.3032 549.489 89.6999 550.819 89.6999C552.103 89.6999 553.153 89.2916 553.969 88.4749C554.786 87.6584 555.195 86.4448 555.195 84.8349V76.0498H559.36V92.7451C559.36 94.2617 559.138 95.551 558.695 96.6127C558.251 97.6743 557.639 98.5436 556.857 99.2202C556.075 99.8969 555.16 100.393 554.11 100.708C553.06 101.023 551.939 101.18 550.75 101.18C549.746 101.18 548.795 101.064 547.897 100.83C546.999 100.597 546.182 100.235 545.447 99.7451C544.712 99.2552 544.082 98.6368 543.557 97.8901C543.032 97.1435 542.653 96.2569 542.419 95.2302H546.584C547.261 96.7934 548.649 97.5752 550.75 97.5752C552.173 97.5752 553.27 97.2075 554.04 96.4726C554.81 95.7377 555.195 94.53 555.195 92.85V90.8199ZM577.49 86.69C577.49 87.8798 577.321 88.9241 576.983 89.8227C576.644 90.7207 576.16 91.4618 575.53 92.0452C574.9 92.6283 574.153 93.0659 573.29 93.3575C572.427 93.6493 571.47 93.7951 570.42 93.7951C569.37 93.7951 568.413 93.6493 567.55 93.3575C566.686 93.0659 565.94 92.6283 565.31 92.0452C564.68 91.4618 564.196 90.7207 563.857 89.8227C563.519 88.9241 563.35 87.8798 563.35 86.69V70.2746H567.515V76.0498H576.44V79.8296H567.515V86.69C567.515 87.8565 567.783 88.6849 568.32 89.175C568.857 89.665 569.557 89.9099 570.42 89.9099C571.283 89.9099 571.983 89.6709 572.52 89.1924C573.057 88.7141 573.325 87.8798 573.325 86.69V86.235H577.49V86.69ZM583.825 86.1649V86.235C584.105 87.4016 584.671 88.3234 585.522 89C586.374 89.6766 587.453 90.0151 588.76 90.0151C590.627 90.0151 591.992 89.4666 592.855 88.3698H597.3C596.647 90.0265 595.574 91.345 594.08 92.3251C592.587 93.305 590.814 93.7951 588.76 93.7951C587.383 93.7951 586.129 93.5675 584.998 93.1125C583.866 92.6576 582.886 92.0276 582.058 91.2225C581.229 90.4175 580.588 89.455 580.133 88.335C579.678 87.2149 579.45 86.0015 579.45 84.6948C579.45 83.3882 579.678 82.1748 580.133 81.0549C580.588 79.9347 581.229 78.9722 582.058 78.1672C582.886 77.3621 583.866 76.7323 584.998 76.2771C586.129 75.8222 587.383 75.5948 588.76 75.5948C590.114 75.5948 591.362 75.8222 592.505 76.2771C593.649 76.7323 594.623 77.3621 595.428 78.1672C596.233 78.9722 596.863 79.9347 597.318 81.0549C597.773 82.1748 598 83.3882 598 84.6948V86.1649L583.825 86.1649ZM588.76 79.3748C587.524 79.3748 586.491 79.6781 585.663 80.285C584.834 80.8915 584.257 81.7198 583.93 82.7698V82.8398L593.59 82.8398V82.7698C593.264 81.7198 592.68 80.8915 591.84 80.285C591 79.6781 589.974 79.3748 588.76 79.3748Z" fill="#456C91"/>
<path fill-rule="evenodd" clip-rule="evenodd" d="M479.397 10.9998C502.257 10.9998 520.795 29.5379 520.795 52.3971C520.795 75.2561 502.257 93.7944 479.397 93.7944C456.538 93.7944 438 75.2561 438 52.3971C438 29.5379 456.538 10.9998 479.397 10.9998ZM479.397 15.5237C499.759 15.5237 516.271 32.036 516.271 52.3971C516.271 72.7583 499.759 89.2706 479.397 89.2706C459.036 89.2706 442.524 72.7583 442.524 52.3971C442.524 32.036 459.036 15.5237 479.397 15.5237Z" fill="#456C91"/>
</g>
<path d="M193.579 270C217.88 270 237.579 250.301 237.579 226C237.579 201.699 217.88 182 193.579 182C169.279 182 149.579 201.699 149.579 226C149.579 250.301 169.279 270 193.579 270Z" fill="#26A17B"/>
<path fill-rule="evenodd" clip-rule="evenodd" d="M198.865 229.797V229.792C198.562 229.814 197.003 229.907 193.524 229.907C190.747 229.907 188.792 229.825 188.104 229.792V229.8C177.412 229.33 169.432 227.468 169.432 225.24C169.432 223.016 177.412 221.154 188.104 220.675V227.946C188.803 227.996 190.805 228.114 193.571 228.114C196.89 228.114 198.554 227.977 198.865 227.949V220.681C209.535 221.157 217.496 223.018 217.496 225.24C217.496 227.468 209.535 229.324 198.865 229.797ZM198.865 219.925V213.418H213.753V203.496H173.216V213.418H188.104V219.922C176.004 220.477 166.904 222.875 166.904 225.746C166.904 228.617 176.004 231.013 188.104 231.571V252.421H198.865V231.565C210.946 231.01 220.023 228.615 220.023 225.746C220.023 222.878 210.946 220.483 198.865 219.925Z" fill="white"/>
<path d="M17 208.814C17 200.53 23.7157 193.814 32 193.814H159.52C167.804 193.814 174.52 200.53 174.52 208.814V243.135C174.52 251.419 167.804 258.135 159.52 258.135H32C23.7157 258.135 17 251.419 17 243.135V208.814Z" fill="#26A17B" fill-opacity="0.2"/>
<path d="M59.5227 215.727H63.0455V231.034C63.0455 232.663 62.6629 234.106 61.8977 235.364C61.1326 236.614 60.0568 237.598 58.6705 238.318C57.2841 239.03 55.6591 239.386 53.7955 239.386C51.9394 239.386 50.3182 239.03 48.9318 238.318C47.5455 237.598 46.4697 236.614 45.7045 235.364C44.9394 234.106 44.5568 232.663 44.5568 231.034V215.727H48.0682V230.75C48.0682 231.803 48.2992 232.739 48.7614 233.557C49.2311 234.375 49.8939 235.019 50.75 235.489C51.6061 235.951 52.6212 236.182 53.7955 236.182C54.9773 236.182 55.9962 235.951 56.8523 235.489C57.7159 235.019 58.375 234.375 58.8295 233.557C59.2917 232.739 59.5227 231.803 59.5227 230.75V215.727ZM80.8438 221.841C80.7225 220.765 80.2225 219.932 79.3438 219.341C78.465 218.742 77.3589 218.443 76.0256 218.443C75.071 218.443 74.2453 218.595 73.5483 218.898C72.8513 219.193 72.3097 219.602 71.9233 220.125C71.5445 220.64 71.3551 221.227 71.3551 221.886C71.3551 222.439 71.4839 222.917 71.7415 223.318C72.0066 223.72 72.3513 224.057 72.7756 224.33C73.2074 224.595 73.6695 224.818 74.1619 225C74.6544 225.174 75.1278 225.318 75.5824 225.432L77.8551 226.023C78.5975 226.205 79.3589 226.451 80.1392 226.761C80.9195 227.072 81.643 227.481 82.3097 227.989C82.9763 228.496 83.5142 229.125 83.9233 229.875C84.34 230.625 84.5483 231.523 84.5483 232.568C84.5483 233.886 84.2074 235.057 83.5256 236.08C82.8513 237.102 81.8703 237.909 80.5824 238.5C79.3021 239.091 77.7528 239.386 75.9347 239.386C74.1922 239.386 72.6847 239.11 71.4119 238.557C70.1392 238.004 69.143 237.22 68.4233 236.205C67.7036 235.182 67.3059 233.97 67.2301 232.568H70.7528C70.821 233.409 71.0938 234.11 71.571 234.67C72.0559 235.223 72.6733 235.636 73.4233 235.909C74.1809 236.174 75.0104 236.307 75.9119 236.307C76.9044 236.307 77.7869 236.152 78.5597 235.841C79.34 235.523 79.9536 235.083 80.4006 234.523C80.8475 233.955 81.071 233.292 81.071 232.534C81.071 231.845 80.8741 231.28 80.4801 230.841C80.0938 230.402 79.5672 230.038 78.9006 229.75C78.2415 229.462 77.4953 229.208 76.6619 228.989L73.9119 228.239C72.0483 227.731 70.571 226.985 69.4801 226C68.3968 225.015 67.8551 223.712 67.8551 222.091C67.8551 220.75 68.2188 219.58 68.946 218.58C69.6733 217.58 70.6581 216.803 71.9006 216.25C73.143 215.689 74.5445 215.409 76.1051 215.409C77.6809 215.409 79.071 215.686 80.2756 216.239C81.4877 216.792 82.4422 217.553 83.1392 218.523C83.8362 219.485 84.1998 220.591 84.2301 221.841H80.8438ZM96.2784 239H88.7443V215.727H96.517C98.7973 215.727 100.756 216.193 102.392 217.125C104.028 218.049 105.282 219.379 106.153 221.114C107.032 222.841 107.472 224.913 107.472 227.33C107.472 229.754 107.028 231.837 106.142 233.58C105.263 235.322 103.991 236.663 102.324 237.602C100.657 238.534 98.642 239 96.2784 239ZM92.2557 235.932H96.0852C97.858 235.932 99.3314 235.598 100.506 234.932C101.68 234.258 102.559 233.284 103.142 232.011C103.725 230.731 104.017 229.17 104.017 227.33C104.017 225.504 103.725 223.955 103.142 222.682C102.566 221.409 101.706 220.443 100.562 219.784C99.4186 219.125 97.9981 218.795 96.3011 218.795H92.2557V235.932ZM109.69 218.75V215.727H127.702V218.75H120.44V239H116.94V218.75H109.69Z" fill="white"/>
<path d="M454 209C454 200.716 460.716 194 469 194H596.52C604.804 194 611.52 200.716 611.52 209V243.321C611.52 251.605 604.804 258.321 596.52 258.321H469C460.716 258.321 454 251.605 454 243.321V209Z" fill="#FF433E" fill-opacity="0.2"/>
<path d="M494.557 238V214.727H498.068V225.841H498.352L508.114 214.727H512.534L503.148 225.205L512.568 238H508.341L500.818 227.602L498.068 230.761V238H494.557ZM517.773 238H514.045L522.42 214.727H526.477L534.852 238H531.125L524.545 218.955H524.364L517.773 238ZM518.398 228.886H530.489V231.841H518.398V228.886ZM537.81 214.727L544.287 233.682H544.548L551.026 214.727H554.821L546.446 238H542.389L534.014 214.727H537.81ZM557.773 238H554.045L562.42 214.727H566.477L574.852 238H571.125L564.545 218.955H564.364L557.773 238ZM558.398 228.886H570.489V231.841H558.398V228.886Z" fill="white"/>
<path d="M432 270C456.301 270 476 250.301 476 226C476 201.699 456.301 182 432 182C407.699 182 388 201.699 388 226C388 250.301 407.699 270 432 270Z" fill="#FF433E"/>
<path d="M420.347 200.597H411.479V251.438H420.347V200.597Z" fill="white"/>
<path d="M444.615 251.403L425.159 226L444.615 200.597H455.719L436.572 226L455.719 251.403H444.615Z" fill="white"/>
<path d="M240.008 255.089C239.228 254.808 238.369 255.213 238.089 255.992L233.518 268.695C233.237 269.474 233.642 270.334 234.421 270.614C235.201 270.895 236.06 270.49 236.34 269.711L240.404 258.419L251.695 262.482C252.474 262.763 253.334 262.358 253.614 261.579C253.895 260.799 253.49 259.94 252.711 259.66L240.008 255.089ZM214.219 676.873C215.201 675.503 216.174 674.139 217.138 672.781L214.692 671.044C213.73 672.399 212.76 673.759 211.781 675.127L214.219 676.873ZM222.819 664.706C224.723 661.974 226.591 659.267 228.423 656.584L225.945 654.893C224.119 657.567 222.256 660.266 220.358 662.99L222.819 664.706ZM233.946 648.407C235.8 645.63 237.615 642.88 239.391 640.154L236.877 638.517C235.108 641.232 233.299 643.973 231.451 646.741L233.946 648.407ZM244.712 631.878C246.508 629.046 248.26 626.241 249.97 623.462L247.415 621.89C245.712 624.657 243.967 627.451 242.178 630.272L244.712 631.878ZM255.035 615.092C256.76 612.194 258.436 609.324 260.066 606.48L257.463 604.989C255.842 607.818 254.174 610.673 252.457 613.558L255.035 615.092ZM264.887 597.892C266.497 594.963 268.054 592.063 269.561 589.188L266.904 587.795C265.407 590.652 263.858 593.535 262.258 596.447L264.887 597.892ZM274.076 580.35C275.559 577.366 276.985 574.41 278.357 571.479L275.64 570.208C274.278 573.117 272.862 576.052 271.389 579.015L274.076 580.35ZM282.437 562.462C283.781 559.385 285.063 556.334 286.283 553.309L283.501 552.187C282.292 555.185 281.021 558.209 279.688 561.261L282.437 562.462ZM289.842 544.085C290.993 540.956 292.078 537.853 293.096 534.771L290.248 533.83C289.24 536.879 288.167 539.951 287.027 543.049L289.842 544.085ZM296.047 525.282C296.982 522.067 297.845 518.874 298.638 515.7L295.727 514.974C294.944 518.11 294.091 521.266 293.166 524.444L296.047 525.282ZM300.842 506.036C301.516 502.773 302.115 499.526 302.639 496.293L299.678 495.812C299.16 499.003 298.569 502.207 297.904 505.43L300.842 506.036ZM304.011 486.478C304.397 483.174 304.707 479.881 304.942 476.595L301.95 476.381C301.718 479.622 301.413 482.87 301.031 486.129L304.011 486.478ZM305.424 466.68C305.509 463.371 305.52 460.066 305.456 456.761L302.457 456.818C302.519 460.079 302.509 463.339 302.425 466.603L305.424 466.68ZM305.049 446.853C304.842 443.565 304.564 440.273 304.218 436.972L301.234 437.286C301.577 440.545 301.851 443.796 302.055 447.041L305.049 446.853ZM302.984 427.131C302.511 423.878 301.974 420.614 301.373 417.336L298.422 417.876C299.017 421.12 299.548 424.347 300.015 427.562L302.984 427.131ZM299.424 407.638C298.728 404.448 297.974 401.24 297.164 398.013L294.254 398.743C295.057 401.942 295.803 405.119 296.493 408.278L299.424 407.638ZM294.62 388.452C293.737 385.307 292.804 382.139 291.822 378.947L288.954 379.83C289.93 382.999 290.856 386.142 291.732 389.263L294.62 388.452ZM288.799 369.508C287.775 366.428 286.709 363.324 285.6 360.192L282.772 361.194C283.875 364.308 284.935 367.394 285.952 370.454L288.799 369.508ZM282.223 350.913C281.08 347.854 279.9 344.767 278.683 341.652L275.889 342.743C277.101 345.846 278.276 348.918 279.412 351.962L282.223 350.913ZM275.035 332.494C273.815 329.488 272.563 326.453 271.279 323.387L268.512 324.546C269.792 327.602 271.04 330.626 272.255 333.622L275.035 332.494ZM267.405 314.263C266.123 311.285 264.814 308.277 263.477 305.238L260.731 306.446C262.065 309.478 263.371 312.478 264.649 315.449L267.405 314.263ZM259.478 296.233C258.139 293.247 256.776 290.231 255.389 287.184L252.659 288.426C254.044 291.469 255.404 294.48 256.74 297.46L259.478 296.233ZM251.311 278.279C249.945 275.315 248.557 272.321 247.149 269.296L244.429 270.562C245.836 273.584 247.222 276.575 248.586 279.535L251.311 278.279ZM242.983 260.385C242.279 258.885 241.571 257.377 240.857 255.861L238.143 257.139C238.856 258.653 239.564 260.16 240.267 261.659L242.983 260.385ZM240.516 253.677C238.957 253.116 237.238 253.925 236.677 255.484L227.535 280.889C226.974 282.448 227.783 284.167 229.342 284.728C230.901 285.289 232.62 284.48 233.181 282.921L241.307 260.339L263.889 268.465C265.448 269.026 267.167 268.217 267.728 266.658C268.289 265.099 267.48 263.38 265.921 262.819L240.516 253.677ZM215.439 677.747C216.422 676.375 217.396 675.009 218.361 673.649L213.469 670.176C212.508 671.528 211.539 672.888 210.561 674.253L215.439 677.747ZM224.05 665.563C225.956 662.828 227.827 660.117 229.661 657.43L224.706 654.047C222.883 656.717 221.023 659.412 219.127 662.133L224.05 665.563ZM235.194 649.24C237.051 646.459 238.869 643.703 240.648 640.973L235.621 637.698C233.854 640.408 232.049 643.145 230.204 645.908L235.194 649.24ZM245.978 632.682C247.778 629.844 249.534 627.033 251.247 624.247L246.137 621.104C244.438 623.865 242.697 626.653 240.911 629.468L245.978 632.682ZM256.324 615.859C258.053 612.954 259.734 610.077 261.367 607.226L256.161 604.243C254.545 607.065 252.88 609.913 251.168 612.791L256.324 615.859ZM266.202 598.614C267.816 595.677 269.378 592.768 270.89 589.885L265.576 587.099C264.083 589.946 262.539 592.821 260.944 595.724L266.202 598.614ZM275.419 581.018C276.907 578.024 278.339 575.057 279.715 572.115L274.281 569.572C272.925 572.47 271.514 575.394 270.046 578.347L275.419 581.018ZM283.812 563.062C285.161 559.973 286.449 556.909 287.674 553.87L282.11 551.625C280.906 554.61 279.641 557.622 278.313 560.661L283.812 563.062ZM291.25 544.603C292.407 541.459 293.497 538.34 294.521 535.242L288.824 533.359C287.821 536.392 286.753 539.448 285.619 542.531L291.25 544.603ZM297.487 525.701C298.428 522.468 299.296 519.257 300.093 516.063L294.271 514.611C293.494 517.728 292.646 520.865 291.726 524.025L297.487 525.701ZM302.311 506.34C302.989 503.056 303.592 499.788 304.12 496.533L298.197 495.572C297.683 498.741 297.096 501.925 296.435 505.126L302.311 506.34ZM305.5 486.652C305.89 483.326 306.202 480.011 306.438 476.702L300.454 476.275C300.224 479.493 299.92 482.718 299.541 485.954L305.5 486.652ZM306.923 466.719C307.009 463.387 307.02 460.06 306.956 456.732L300.957 456.847C301.019 460.086 301.009 463.323 300.925 466.564L306.923 466.719ZM306.546 446.759C306.338 443.449 306.058 440.136 305.709 436.816L299.742 437.443C300.083 440.682 300.355 443.911 300.558 447.136L306.546 446.759ZM304.468 426.915C303.993 423.643 303.453 420.361 302.849 417.065L296.947 418.146C297.538 421.372 298.066 424.581 298.531 427.778L304.468 426.915ZM300.89 407.318C300.19 404.112 299.432 400.89 298.619 397.648L292.799 399.108C293.598 402.292 294.341 405.455 295.028 408.598L300.89 407.318ZM296.065 388.047C295.178 384.889 294.241 381.709 293.255 378.506L287.521 380.271C288.493 383.429 289.416 386.56 290.288 389.668L296.065 388.047ZM290.222 369.035C289.196 365.946 288.126 362.832 287.014 359.692L281.358 361.694C282.457 364.8 283.515 367.877 284.528 370.927L290.222 369.035ZM283.628 350.388C282.483 347.322 281.3 344.228 280.08 341.106L274.491 343.289C275.701 346.385 276.873 349.45 278.007 352.487L283.628 350.388ZM276.425 331.93C275.203 328.918 273.949 325.878 272.663 322.808L267.129 325.126C268.406 328.176 269.652 331.196 270.865 334.186L276.425 331.93ZM268.783 313.67C267.5 310.688 266.189 307.676 264.85 304.634L259.358 307.05C260.69 310.078 261.995 313.075 263.271 316.041L268.783 313.67ZM260.846 295.619C259.507 292.631 258.143 289.612 256.755 286.562L251.294 289.048C252.677 292.088 254.037 295.096 255.371 298.073L260.846 295.619ZM252.673 277.651C251.306 274.685 249.918 271.69 248.509 268.663L243.069 271.195C244.475 274.216 245.86 277.204 247.224 280.163L252.673 277.651ZM244.341 259.748C243.637 258.247 242.928 256.738 242.214 255.222L236.786 257.778C237.498 259.292 238.206 260.798 238.91 262.296L244.341 259.748Z" fill="white"/>
<path d="M377.621 259.589C378.401 259.308 379.26 259.713 379.54 260.492L384.111 273.195C384.392 273.974 383.987 274.834 383.208 275.114C382.428 275.395 381.569 274.99 381.288 274.211L377.225 262.919L365.934 266.982C365.155 267.263 364.295 266.858 364.015 266.079C363.734 265.299 364.139 264.44 364.918 264.16L377.621 259.589ZM414.909 675.873C413.894 674.456 412.888 673.046 411.89 671.643L414.335 669.904C415.331 671.305 416.335 672.712 417.348 674.127L414.909 675.873ZM406.006 663.306C404.026 660.48 402.082 657.682 400.174 654.911L402.645 653.21C404.548 655.973 406.488 658.765 408.463 661.585L406.006 663.306ZM394.436 646.501C392.496 643.631 390.595 640.79 388.734 637.978L391.236 636.322C393.091 639.126 394.986 641.959 396.921 644.821L394.436 646.501ZM383.187 629.5C381.296 626.576 379.449 623.682 377.645 620.817L380.183 619.218C381.981 622.072 383.821 624.956 385.706 627.871L383.187 629.5ZM372.285 612.181C370.477 609.224 368.716 606.299 367.004 603.402L369.586 601.875C371.291 604.758 373.043 607.672 374.844 610.616L372.285 612.181ZM361.861 594.545C360.16 591.558 358.511 588.602 356.913 585.674L359.546 584.237C361.135 587.148 362.775 590.088 364.468 593.06L361.861 594.545ZM352.079 576.605C350.48 573.527 348.938 570.48 347.455 567.462L350.148 566.139C351.621 569.136 353.152 572.163 354.741 575.222L352.079 576.605ZM343.069 558.254C341.62 555.111 340.236 551.997 338.915 548.911L341.673 547.73C342.983 550.791 344.356 553.879 345.793 556.998L343.069 558.254ZM335.015 539.402C333.75 536.174 332.556 532.973 331.432 529.797L334.261 528.797C335.373 531.94 336.555 535.109 337.808 538.307L335.015 539.402ZM328.192 520.084C327.16 516.787 326.205 513.512 325.326 510.256L328.222 509.474C329.091 512.691 330.035 515.927 331.055 519.188L328.192 520.084ZM322.863 500.308C322.104 496.933 321.428 493.576 320.832 490.231L323.786 489.706C324.373 493.005 325.041 496.318 325.79 499.649L322.863 500.308ZM319.27 480.079C318.827 476.668 318.469 473.267 318.193 469.869L321.183 469.626C321.455 472.976 321.808 476.33 322.245 479.693L319.27 480.079ZM317.612 459.62C317.501 456.201 317.473 452.782 317.526 449.357L320.525 449.404C320.473 452.781 320.501 456.152 320.61 459.523L317.612 459.62ZM317.925 439.103C318.136 435.705 318.424 432.298 318.79 428.876L321.773 429.195C321.412 432.573 321.127 435.936 320.919 439.289L317.925 439.103ZM320.094 418.694C320.594 415.338 321.165 411.963 321.805 408.567L324.753 409.123C324.12 412.483 323.555 415.819 323.061 419.136L320.094 418.694ZM323.88 398.546C324.62 395.257 325.422 391.945 326.285 388.605L329.189 389.356C328.334 392.666 327.539 395.948 326.807 399.204L323.88 398.546ZM328.987 378.738C329.922 375.5 330.911 372.233 331.954 368.935L334.814 369.839C333.779 373.115 332.797 376.358 331.869 379.571L328.987 378.738ZM335.159 359.182C336.241 356.006 337.37 352.799 338.545 349.558L341.366 350.58C340.197 353.804 339.074 356.993 337.999 360.15L335.159 359.182ZM342.103 340.001C343.303 336.857 344.544 333.679 345.825 330.465L348.612 331.576C347.336 334.777 346.1 337.941 344.906 341.071L342.103 340.001ZM349.685 320.966C350.962 317.877 352.275 314.756 353.621 311.599L356.38 312.776C355.038 315.923 353.73 319.035 352.457 322.112L349.685 320.966ZM357.678 302.212C359.029 299.124 360.411 296.003 361.823 292.845L364.562 294.07C363.152 297.221 361.774 300.335 360.426 303.414L357.678 302.212ZM366.002 283.59C367.401 280.517 368.827 277.41 370.28 274.268L373.003 275.527C371.553 278.664 370.129 281.766 368.732 284.833L366.002 283.59ZM374.571 265.048C375.299 263.494 376.032 261.932 376.772 260.361L379.486 261.639C378.747 263.208 378.015 264.769 377.288 266.32L374.571 265.048ZM377.113 258.177C378.672 257.616 380.391 258.425 380.952 259.984L390.094 285.389C390.655 286.948 389.846 288.667 388.287 289.228C386.728 289.789 385.009 288.98 384.448 287.421L376.322 264.839L353.739 272.965C352.18 273.526 350.462 272.717 349.901 271.158C349.34 269.599 350.149 267.88 351.708 267.319L377.113 258.177ZM413.69 676.747C412.674 675.328 411.667 673.917 410.668 672.512L415.557 669.035C416.552 670.434 417.556 671.84 418.568 673.253L413.69 676.747ZM404.777 664.167C402.795 661.337 400.849 658.536 398.939 655.762L403.88 652.359C405.781 655.119 407.718 657.908 409.692 660.725L404.777 664.167ZM393.193 647.341C391.25 644.467 389.347 641.622 387.483 638.806L392.487 635.495C394.34 638.294 396.232 641.123 398.164 643.981L393.193 647.341ZM381.927 630.315C380.033 627.385 378.183 624.486 376.376 621.616L381.453 618.419C383.247 621.268 385.084 624.147 386.966 627.057L381.927 630.315ZM371.005 612.964C369.193 610.001 367.429 607.069 365.712 604.166L370.877 601.112C372.578 603.988 374.327 606.895 376.124 609.834L371.005 612.964ZM360.557 595.287C358.852 592.293 357.198 589.329 355.596 586.393L360.863 583.519C362.447 586.421 364.083 589.353 365.771 592.318L360.557 595.287ZM350.748 577.297C349.144 574.209 347.597 571.152 346.109 568.123L351.494 565.477C352.962 568.464 354.488 571.481 356.072 574.53L350.748 577.297ZM341.707 558.882C340.252 555.726 338.862 552.6 337.536 549.501L343.052 547.14C344.356 550.188 345.724 553.263 347.156 556.37L341.707 558.882ZM333.619 539.949C332.348 536.706 331.148 533.49 330.018 530.297L335.675 528.296C336.781 531.424 337.957 534.577 339.205 537.759L333.619 539.949ZM326.761 520.533C325.723 517.216 324.762 513.923 323.878 510.648L329.67 509.083C330.533 512.28 331.472 515.498 332.487 518.74L326.761 520.533ZM321.399 500.637C320.636 497.241 319.955 493.861 319.356 490.494L325.263 489.443C325.846 492.72 326.509 496.011 327.253 499.32L321.399 500.637ZM317.782 480.272C317.336 476.838 316.975 473.412 316.698 469.99L322.678 469.505C322.948 472.83 323.299 476.161 323.732 479.5L317.782 480.272ZM316.112 459.669C316.001 456.226 315.972 452.782 316.026 449.334L322.025 449.427C321.973 452.781 322.001 456.128 322.109 459.474L316.112 459.669ZM316.428 439.01C316.64 435.589 316.931 432.16 317.298 428.717L323.264 429.354C322.906 432.711 322.623 436.052 322.416 439.382L316.428 439.01ZM318.61 418.473C319.113 415.097 319.687 411.703 320.331 408.289L326.227 409.401C325.597 412.742 325.036 416.06 324.545 419.357L318.61 418.473ZM322.416 398.217C323.16 394.912 323.966 391.584 324.833 388.23L330.642 389.731C329.79 393.027 328.999 396.293 328.27 399.534L322.416 398.217ZM327.545 378.322C328.484 375.071 329.477 371.793 330.524 368.483L336.244 370.291C335.212 373.556 334.234 376.786 333.31 379.987L327.545 378.322ZM333.739 358.698C334.825 355.513 335.957 352.296 337.135 349.046L342.776 351.091C341.61 354.306 340.491 357.486 339.419 360.633L333.739 358.698ZM340.701 339.466C341.905 336.314 343.148 333.13 344.432 329.91L350.005 332.132C348.732 335.326 347.499 338.483 346.307 341.606L340.701 339.466ZM348.299 320.392C349.579 317.299 350.893 314.172 352.241 311.01L357.76 313.364C356.42 316.507 355.114 319.613 353.844 322.685L348.299 320.392ZM356.303 301.61C357.656 298.519 359.04 295.394 360.454 292.233L365.931 294.683C364.523 297.83 363.146 300.94 361.8 304.016L356.303 301.61ZM364.636 282.968C366.037 279.892 367.465 276.783 368.919 273.638L374.365 276.157C372.915 279.292 371.492 282.391 370.097 285.455L364.636 282.968ZM373.213 264.412C373.941 262.857 374.675 261.294 375.415 259.722L380.843 262.278C380.105 263.846 379.373 265.406 378.647 266.956L373.213 264.412Z" fill="white"/>
<path d="M193.579 719C217.88 719 237.579 699.301 237.579 675C237.579 650.699 217.88 631 193.579 631C169.279 631 149.579 650.699 149.579 675C149.579 699.301 169.279 719 193.579 719Z" fill="#26A17B"/>
<path fill-rule="evenodd" clip-rule="evenodd" d="M198.865 678.797V678.792C198.562 678.814 197.003 678.907 193.524 678.907C190.747 678.907 188.792 678.825 188.104 678.792V678.8C177.412 678.33 169.432 676.468 169.432 674.24C169.432 672.016 177.412 670.154 188.104 669.675V676.946C188.803 676.996 190.805 677.114 193.571 677.114C196.89 677.114 198.554 676.977 198.865 676.949V669.681C209.535 670.157 217.496 672.018 217.496 674.24C217.496 676.468 209.535 678.324 198.865 678.797ZM198.865 668.925V662.418H213.753V652.496H173.216V662.418H188.104V668.922C176.004 669.477 166.904 671.875 166.904 674.746C166.904 677.617 176.004 680.013 188.104 680.571V701.421H198.865V680.565C210.946 680.01 220.023 677.615 220.023 674.746C220.023 671.878 210.946 669.483 198.865 668.925Z" fill="white"/>
<path d="M17 657.814C17 649.53 23.7157 642.814 32 642.814H159.52C167.804 642.814 174.52 649.53 174.52 657.814V692.135C174.52 700.419 167.804 707.135 159.52 707.135H32C23.7157 707.135 17 700.419 17 692.135V657.814Z" fill="#26A17B" fill-opacity="0.2"/>
<path d="M59.5227 664.727H63.0455V680.034C63.0455 681.663 62.6629 683.106 61.8977 684.364C61.1326 685.614 60.0568 686.598 58.6705 687.318C57.2841 688.03 55.6591 688.386 53.7955 688.386C51.9394 688.386 50.3182 688.03 48.9318 687.318C47.5455 686.598 46.4697 685.614 45.7045 684.364C44.9394 683.106 44.5568 681.663 44.5568 680.034V664.727H48.0682V679.75C48.0682 680.803 48.2992 681.739 48.7614 682.557C49.2311 683.375 49.8939 684.019 50.75 684.489C51.6061 684.951 52.6212 685.182 53.7955 685.182C54.9773 685.182 55.9962 684.951 56.8523 684.489C57.7159 684.019 58.375 683.375 58.8295 682.557C59.2917 681.739 59.5227 680.803 59.5227 679.75V664.727ZM80.8438 670.841C80.7225 669.765 80.2225 668.932 79.3438 668.341C78.465 667.742 77.3589 667.443 76.0256 667.443C75.071 667.443 74.2453 667.595 73.5483 667.898C72.8513 668.193 72.3097 668.602 71.9233 669.125C71.5445 669.64 71.3551 670.227 71.3551 670.886C71.3551 671.439 71.4839 671.917 71.7415 672.318C72.0066 672.72 72.3513 673.057 72.7756 673.33C73.2074 673.595 73.6695 673.818 74.1619 674C74.6544 674.174 75.1278 674.318 75.5824 674.432L77.8551 675.023C78.5975 675.205 79.3589 675.451 80.1392 675.761C80.9195 676.072 81.643 676.481 82.3097 676.989C82.9763 677.496 83.5142 678.125 83.9233 678.875C84.34 679.625 84.5483 680.523 84.5483 681.568C84.5483 682.886 84.2074 684.057 83.5256 685.08C82.8513 686.102 81.8703 686.909 80.5824 687.5C79.3021 688.091 77.7528 688.386 75.9347 688.386C74.1922 688.386 72.6847 688.11 71.4119 687.557C70.1392 687.004 69.143 686.22 68.4233 685.205C67.7036 684.182 67.3059 682.97 67.2301 681.568H70.7528C70.821 682.409 71.0938 683.11 71.571 683.67C72.0559 684.223 72.6733 684.636 73.4233 684.909C74.1809 685.174 75.0104 685.307 75.9119 685.307C76.9044 685.307 77.7869 685.152 78.5597 684.841C79.34 684.523 79.9536 684.083 80.4006 683.523C80.8475 682.955 81.071 682.292 81.071 681.534C81.071 680.845 80.8741 680.28 80.4801 679.841C80.0938 679.402 79.5672 679.038 78.9006 678.75C78.2415 678.462 77.4953 678.208 76.6619 677.989L73.9119 677.239C72.0483 676.731 70.571 675.985 69.4801 675C68.3968 674.015 67.8551 672.712 67.8551 671.091C67.8551 669.75 68.2188 668.58 68.946 667.58C69.6733 666.58 70.6581 665.803 71.9006 665.25C73.143 664.689 74.5445 664.409 76.1051 664.409C77.6809 664.409 79.071 664.686 80.2756 665.239C81.4877 665.792 82.4422 666.553 83.1392 667.523C83.8362 668.485 84.1998 669.591 84.2301 670.841H80.8438ZM96.2784 688H88.7443V664.727H96.517C98.7973 664.727 100.756 665.193 102.392 666.125C104.028 667.049 105.282 668.379 106.153 670.114C107.032 671.841 107.472 673.913 107.472 676.33C107.472 678.754 107.028 680.837 106.142 682.58C105.263 684.322 103.991 685.663 102.324 686.602C100.657 687.534 98.642 688 96.2784 688ZM92.2557 684.932H96.0852C97.858 684.932 99.3314 684.598 100.506 683.932C101.68 683.258 102.559 682.284 103.142 681.011C103.725 679.731 104.017 678.17 104.017 676.33C104.017 674.504 103.725 672.955 103.142 671.682C102.566 670.409 101.706 669.443 100.562 668.784C99.4186 668.125 97.9981 667.795 96.3011 667.795H92.2557V684.932ZM109.69 667.75V664.727H127.702V667.75H120.44V688H116.94V667.75H109.69Z" fill="white"/>
<path d="M454 658C454 649.716 460.716 643 469 643H596.52C604.804 643 611.52 649.716 611.52 658V692.321C611.52 700.605 604.804 707.321 596.52 707.321H469C460.716 707.321 454 700.605 454 692.321V658Z" fill="#FF433E" fill-opacity="0.2"/>
<path d="M494.557 687V663.727H498.068V674.841H498.352L508.114 663.727H512.534L503.148 674.205L512.568 687H508.341L500.818 676.602L498.068 679.761V687H494.557ZM517.773 687H514.045L522.42 663.727H526.477L534.852 687H531.125L524.545 667.955H524.364L517.773 687ZM518.398 677.886H530.489V680.841H518.398V677.886ZM537.81 663.727L544.287 682.682H544.548L551.026 663.727H554.821L546.446 687H542.389L534.014 663.727H537.81ZM557.773 687H554.045L562.42 663.727H566.477L574.852 687H571.125L564.545 667.955H564.364L557.773 687ZM558.398 677.886H570.489V680.841H558.398V677.886Z" fill="white"/>
<path d="M432 719C456.301 719 476 699.301 476 675C476 650.699 456.301 631 432 631C407.699 631 388 650.699 388 675C388 699.301 407.699 719 432 719Z" fill="#FF433E"/>
<path d="M420.347 649.597H411.479V700.437H420.347V649.597Z" fill="white"/>
<path d="M444.615 700.403L425.159 675L444.615 649.597H455.719L436.572 675L455.719 700.403H444.615Z" fill="white"/>
<rect x="255" y="511" width="109" height="16" fill="#1B0D16"/>
<path d="M261.75 522.655C261.04 522.655 260.432 522.515 259.926 522.234C259.42 521.949 259.033 521.555 258.763 521.049C258.493 520.54 258.358 519.951 258.358 519.28C258.358 518.61 258.493 518.022 258.763 517.516C259.033 517.008 259.42 516.613 259.926 516.332C260.432 516.047 261.04 515.905 261.75 515.905C262.392 515.905 262.947 516.022 263.416 516.255C263.888 516.485 264.253 516.812 264.511 517.235C264.77 517.655 264.901 518.15 264.903 518.718H262.722C262.69 518.374 262.591 518.113 262.423 517.934C262.259 517.752 262.045 517.661 261.784 517.661C261.58 517.661 261.401 517.721 261.247 517.84C261.094 517.957 260.974 518.134 260.889 518.373C260.804 518.609 260.761 518.905 260.761 519.263C260.761 519.621 260.804 519.92 260.889 520.158C260.974 520.394 261.094 520.572 261.247 520.691C261.401 520.807 261.58 520.866 261.784 520.866C261.957 520.866 262.111 520.826 262.244 520.746C262.378 520.664 262.486 520.545 262.568 520.388C262.653 520.229 262.705 520.036 262.722 519.809H264.903C264.895 520.386 264.763 520.888 264.507 521.317C264.251 521.744 263.889 522.073 263.42 522.306C262.955 522.539 262.398 522.655 261.75 522.655ZM269.027 522.655C268.317 522.655 267.709 522.515 267.203 522.234C266.698 521.949 266.31 521.555 266.04 521.049C265.77 520.54 265.635 519.951 265.635 519.28C265.635 518.61 265.77 518.022 266.04 517.516C266.31 517.008 266.698 516.613 267.203 516.332C267.709 516.047 268.317 515.905 269.027 515.905C269.738 515.905 270.346 516.047 270.851 516.332C271.357 516.613 271.745 517.008 272.015 517.516C272.284 518.022 272.419 518.61 272.419 519.28C272.419 519.951 272.284 520.54 272.015 521.049C271.745 521.555 271.357 521.949 270.851 522.234C270.346 522.515 269.738 522.655 269.027 522.655ZM269.044 520.917C269.243 520.917 269.415 520.85 269.56 520.717C269.705 520.583 269.817 520.393 269.897 520.146C269.976 519.898 270.016 519.604 270.016 519.263C270.016 518.92 269.976 518.626 269.897 518.381C269.817 518.134 269.705 517.944 269.56 517.81C269.415 517.677 269.243 517.61 269.044 517.61C268.834 517.61 268.654 517.677 268.503 517.81C268.353 517.944 268.238 518.134 268.158 518.381C268.078 518.626 268.039 518.92 268.039 519.263C268.039 519.604 268.078 519.898 268.158 520.146C268.238 520.393 268.353 520.583 268.503 520.717C268.654 520.85 268.834 520.917 269.044 520.917ZM277.618 519.672V515.991H279.971V522.536H277.738V521.292H277.669C277.527 521.709 277.279 522.036 276.924 522.272C276.569 522.505 276.147 522.621 275.658 522.621C275.201 522.621 274.8 522.516 274.456 522.306C274.115 522.096 273.85 521.806 273.659 521.437C273.472 521.067 273.377 520.644 273.374 520.167V515.991H275.726V519.672C275.729 519.996 275.811 520.251 275.973 520.435C276.138 520.62 276.368 520.712 276.664 520.712C276.86 520.712 277.029 520.671 277.171 520.589C277.316 520.503 277.426 520.384 277.503 520.231C277.583 520.074 277.621 519.888 277.618 519.672ZM283.519 518.854V522.536H281.167V515.991H283.4V517.235H283.468C283.61 516.82 283.86 516.495 284.218 516.259C284.579 516.023 284.999 515.905 285.479 515.905C285.942 515.905 286.344 516.012 286.685 516.225C287.029 516.435 287.295 516.725 287.482 517.094C287.673 517.464 287.766 517.886 287.763 518.36V522.536H285.411V518.854C285.414 518.53 285.332 518.276 285.164 518.092C284.999 517.907 284.769 517.815 284.474 517.815C284.281 517.815 284.112 517.857 283.967 517.942C283.825 518.025 283.715 518.144 283.638 518.3C283.562 518.454 283.522 518.638 283.519 518.854ZM292.828 515.991V517.695H288.516V515.991H292.828ZM289.351 514.422H291.703V520.431C291.703 520.522 291.719 520.599 291.75 520.661C291.781 520.721 291.83 520.766 291.895 520.797C291.96 520.826 292.044 520.84 292.146 520.84C292.217 520.84 292.3 520.832 292.393 520.815C292.49 520.797 292.561 520.783 292.607 520.772L292.947 522.425C292.842 522.457 292.692 522.495 292.496 522.54C292.303 522.586 292.072 522.616 291.805 522.63C291.266 522.658 290.813 522.603 290.446 522.464C290.08 522.322 289.804 522.099 289.619 521.795C289.435 521.491 289.345 521.11 289.351 520.653V514.422ZM296.854 522.655C296.155 522.655 295.553 522.522 295.047 522.255C294.544 521.985 294.157 521.599 293.884 521.096C293.614 520.59 293.479 519.985 293.479 519.28C293.479 518.604 293.615 518.013 293.888 517.508C294.161 517.002 294.546 516.609 295.043 516.327C295.54 516.046 296.127 515.905 296.803 515.905C297.297 515.905 297.745 515.982 298.145 516.136C298.546 516.289 298.888 516.512 299.172 516.805C299.456 517.094 299.675 517.447 299.828 517.861C299.982 518.276 300.059 518.744 300.059 519.263V519.809H294.212V518.513H297.894C297.891 518.326 297.843 518.161 297.749 518.019C297.658 517.874 297.534 517.762 297.378 517.682C297.225 517.6 297.05 517.559 296.854 517.559C296.664 517.559 296.489 517.6 296.33 517.682C296.171 517.762 296.043 517.873 295.946 518.015C295.853 518.157 295.803 518.323 295.797 518.513V519.911C295.797 520.121 295.841 520.309 295.929 520.474C296.017 520.638 296.144 520.768 296.309 520.861C296.473 520.955 296.672 521.002 296.905 521.002C297.067 521.002 297.215 520.979 297.348 520.934C297.485 520.888 297.601 520.823 297.698 520.738C297.794 520.65 297.865 520.545 297.911 520.422H300.059C299.985 520.877 299.81 521.272 299.534 521.607C299.259 521.94 298.894 522.198 298.439 522.383C297.988 522.565 297.459 522.655 296.854 522.655ZM301.018 522.536V515.991H303.303V517.235H303.371C303.49 516.775 303.679 516.438 303.938 516.225C304.199 516.012 304.504 515.905 304.854 515.905C304.956 515.905 305.057 515.914 305.156 515.931C305.259 515.945 305.357 515.967 305.45 515.995V518.002C305.334 517.962 305.19 517.932 305.02 517.913C304.849 517.893 304.703 517.883 304.581 517.883C304.351 517.883 304.143 517.935 303.959 518.04C303.777 518.143 303.634 518.288 303.528 518.475C303.423 518.66 303.371 518.877 303.371 519.127V522.536H301.018ZM312.205 518.121H310.04C310.028 517.988 309.982 517.873 309.899 517.776C309.817 517.68 309.71 517.606 309.58 517.555C309.452 517.501 309.31 517.474 309.153 517.474C308.952 517.474 308.778 517.511 308.634 517.584C308.489 517.658 308.418 517.763 308.42 517.9C308.418 517.996 308.459 518.086 308.544 518.168C308.632 518.251 308.801 518.315 309.051 518.36L310.381 518.599C311.051 518.721 311.55 518.927 311.876 519.217C312.206 519.503 312.372 519.888 312.375 520.371C312.372 520.837 312.233 521.242 311.957 521.586C311.685 521.927 311.311 522.191 310.837 522.378C310.365 522.563 309.827 522.655 309.222 522.655C308.222 522.655 307.439 522.451 306.874 522.042C306.311 521.633 305.997 521.093 305.932 520.422H308.267C308.298 520.63 308.401 520.79 308.574 520.904C308.75 521.015 308.972 521.07 309.239 521.07C309.455 521.07 309.632 521.033 309.771 520.959C309.913 520.886 309.986 520.78 309.989 520.644C309.986 520.519 309.923 520.42 309.801 520.346C309.682 520.272 309.494 520.212 309.239 520.167L308.08 519.962C307.412 519.846 306.912 519.624 306.58 519.297C306.247 518.971 306.082 518.55 306.085 518.036C306.082 517.582 306.202 517.197 306.443 516.881C306.688 516.563 307.036 516.322 307.487 516.157C307.942 515.989 308.48 515.905 309.102 515.905C310.048 515.905 310.794 516.101 311.339 516.494C311.888 516.886 312.176 517.428 312.205 518.121ZM317.18 515.991V517.695H312.867V515.991H317.18ZM313.702 514.422H316.055V520.431C316.055 520.522 316.07 520.599 316.102 520.661C316.133 520.721 316.181 520.766 316.246 520.797C316.312 520.826 316.396 520.84 316.498 520.84C316.569 520.84 316.651 520.832 316.745 520.815C316.842 520.797 316.913 520.783 316.958 520.772L317.299 522.425C317.194 522.457 317.043 522.495 316.847 522.54C316.654 522.586 316.424 522.616 316.157 522.63C315.617 522.658 315.164 522.603 314.798 522.464C314.431 522.322 314.156 522.099 313.971 521.795C313.786 521.491 313.697 521.11 313.702 520.653V514.422ZM319.963 522.638C319.546 522.638 319.176 522.57 318.855 522.434C318.537 522.295 318.287 522.084 318.105 521.803C317.924 521.522 317.833 521.164 317.833 520.729C317.833 520.371 317.894 520.066 318.016 519.813C318.138 519.557 318.309 519.349 318.527 519.187C318.746 519.025 319 518.901 319.29 518.816C319.583 518.731 319.898 518.675 320.236 518.65C320.603 518.621 320.897 518.587 321.118 518.547C321.343 518.505 321.505 518.447 321.604 518.373C321.703 518.296 321.753 518.195 321.753 518.07V518.053C321.753 517.883 321.688 517.752 321.557 517.661C321.426 517.57 321.259 517.525 321.054 517.525C320.83 517.525 320.647 517.574 320.505 517.674C320.365 517.771 320.282 517.92 320.253 518.121H318.088C318.117 517.724 318.243 517.357 318.468 517.022C318.695 516.684 319.026 516.414 319.461 516.212C319.895 516.008 320.438 515.905 321.088 515.905C321.557 515.905 321.978 515.961 322.35 516.072C322.722 516.18 323.039 516.332 323.3 516.528C323.561 516.721 323.76 516.948 323.897 517.209C324.036 517.468 324.105 517.749 324.105 518.053V522.536H321.907V521.616H321.855C321.725 521.86 321.566 522.057 321.378 522.208C321.194 522.359 320.982 522.468 320.743 522.536C320.507 522.604 320.248 522.638 319.963 522.638ZM320.73 521.155C320.909 521.155 321.077 521.119 321.233 521.045C321.392 520.971 321.522 520.864 321.621 520.725C321.721 520.586 321.77 520.417 321.77 520.218V519.672C321.708 519.698 321.641 519.722 321.57 519.745C321.502 519.768 321.428 519.789 321.348 519.809C321.272 519.829 321.189 519.847 321.101 519.864C321.016 519.881 320.926 519.897 320.833 519.911C320.651 519.94 320.502 519.986 320.385 520.052C320.272 520.114 320.186 520.192 320.13 520.286C320.076 520.377 320.049 520.479 320.049 520.593C320.049 520.775 320.113 520.914 320.24 521.011C320.368 521.107 320.532 521.155 320.73 521.155ZM327.343 520.985L327.36 518.19H327.667L329.252 515.991H331.894L329.235 519.417H328.57L327.343 520.985ZM325.229 522.536V513.809H327.582V522.536H325.229ZM329.269 522.536L327.769 519.945L329.303 518.275L331.962 522.536H329.269ZM335.374 522.655C334.675 522.655 334.072 522.522 333.567 522.255C333.064 521.985 332.676 521.599 332.403 521.096C332.134 520.59 331.999 519.985 331.999 519.28C331.999 518.604 332.135 518.013 332.408 517.508C332.68 517.002 333.065 516.609 333.562 516.327C334.06 516.046 334.646 515.905 335.322 515.905C335.817 515.905 336.264 515.982 336.665 516.136C337.065 516.289 337.408 516.512 337.692 516.805C337.976 517.094 338.195 517.447 338.348 517.861C338.501 518.276 338.578 518.744 338.578 519.263V519.809H332.732V518.513H336.413C336.411 518.326 336.362 518.161 336.268 518.019C336.178 517.874 336.054 517.762 335.898 517.682C335.744 517.6 335.57 517.559 335.374 517.559C335.183 517.559 335.009 517.6 334.849 517.682C334.69 517.762 334.563 517.873 334.466 518.015C334.372 518.157 334.322 518.323 334.317 518.513V519.911C334.317 520.121 334.361 520.309 334.449 520.474C334.537 520.638 334.663 520.768 334.828 520.861C334.993 520.955 335.192 521.002 335.425 521.002C335.587 521.002 335.734 520.979 335.868 520.934C336.004 520.888 336.121 520.823 336.217 520.738C336.314 520.65 336.385 520.545 336.43 520.422H338.578C338.504 520.877 338.33 521.272 338.054 521.607C337.778 521.94 337.413 522.198 336.959 522.383C336.507 522.565 335.979 522.655 335.374 522.655ZM340.816 522.672C340.487 522.672 340.204 522.557 339.968 522.327C339.735 522.094 339.62 521.812 339.623 521.479C339.62 521.155 339.735 520.878 339.968 520.648C340.204 520.418 340.487 520.303 340.816 520.303C341.129 520.303 341.404 520.418 341.643 520.648C341.885 520.878 342.007 521.155 342.01 521.479C342.007 521.701 341.949 521.903 341.835 522.084C341.724 522.263 341.579 522.407 341.4 522.515C341.221 522.62 341.027 522.672 340.816 522.672ZM346.441 522.655C345.731 522.655 345.123 522.515 344.618 522.234C344.112 521.949 343.724 521.555 343.454 521.049C343.184 520.54 343.049 519.951 343.049 519.28C343.049 518.61 343.184 518.022 343.454 517.516C343.724 517.008 344.112 516.613 344.618 516.332C345.123 516.047 345.731 515.905 346.441 515.905C347.152 515.905 347.76 516.047 348.265 516.332C348.771 516.613 349.159 517.008 349.429 517.516C349.699 518.022 349.833 518.61 349.833 519.28C349.833 519.951 349.699 520.54 349.429 521.049C349.159 521.555 348.771 521.949 348.265 522.234C347.76 522.515 347.152 522.655 346.441 522.655ZM346.458 520.917C346.657 520.917 346.829 520.85 346.974 520.717C347.119 520.583 347.231 520.393 347.311 520.146C347.39 519.898 347.43 519.604 347.43 519.263C347.43 518.92 347.39 518.626 347.311 518.381C347.231 518.134 347.119 517.944 346.974 517.81C346.829 517.677 346.657 517.61 346.458 517.61C346.248 517.61 346.068 517.677 345.917 517.81C345.767 517.944 345.652 518.134 345.572 518.381C345.493 518.626 345.453 518.92 345.453 519.263C345.453 519.604 345.493 519.898 345.572 520.146C345.652 520.393 345.767 520.583 345.917 520.717C346.068 520.85 346.248 520.917 346.458 520.917ZM350.788 522.536V515.991H353.072V517.235H353.14C353.26 516.775 353.449 516.438 353.707 516.225C353.968 516.012 354.274 515.905 354.623 515.905C354.725 515.905 354.826 515.914 354.926 515.931C355.028 515.945 355.126 515.967 355.22 515.995V518.002C355.103 517.962 354.96 517.932 354.789 517.913C354.619 517.893 354.473 517.883 354.35 517.883C354.12 517.883 353.913 517.935 353.728 518.04C353.547 518.143 353.403 518.288 353.298 518.475C353.193 518.66 353.14 518.877 353.14 519.127V522.536H350.788ZM358.77 525.127C358.113 525.127 357.551 525.033 357.082 524.846C356.616 524.661 356.254 524.405 355.995 524.079C355.74 523.755 355.596 523.383 355.565 522.962H357.832C357.855 523.101 357.912 523.214 358.002 523.299C358.093 523.384 358.21 523.445 358.352 523.482C358.497 523.522 358.659 523.542 358.838 523.542C359.142 523.542 359.393 523.468 359.592 523.32C359.794 523.172 359.895 522.905 359.895 522.519V521.411H359.826C359.741 521.633 359.61 521.822 359.434 521.978C359.258 522.131 359.047 522.249 358.799 522.332C358.552 522.411 358.281 522.451 357.985 522.451C357.52 522.451 357.091 522.343 356.699 522.127C356.309 521.911 355.997 521.569 355.761 521.1C355.528 520.631 355.412 520.019 355.412 519.263C355.412 518.474 355.534 517.832 355.778 517.337C356.025 516.843 356.343 516.481 356.733 516.251C357.125 516.021 357.537 515.905 357.968 515.905C358.292 515.905 358.576 515.962 358.821 516.076C359.065 516.187 359.27 516.336 359.434 516.523C359.599 516.708 359.724 516.911 359.809 517.133H359.86V515.991H362.213V522.519C362.213 523.073 362.069 523.543 361.782 523.93C361.498 524.319 361.098 524.616 360.581 524.82C360.064 525.025 359.46 525.127 358.77 525.127ZM358.855 520.78C359.071 520.78 359.255 520.721 359.409 520.601C359.565 520.479 359.684 520.306 359.767 520.082C359.852 519.854 359.895 519.582 359.895 519.263C359.895 518.94 359.852 518.663 359.767 518.432C359.684 518.199 359.565 518.022 359.409 517.9C359.255 517.775 359.071 517.712 358.855 517.712C358.639 517.712 358.454 517.775 358.301 517.9C358.15 518.022 358.034 518.199 357.951 518.432C357.872 518.663 357.832 518.94 357.832 519.263C357.832 519.587 357.872 519.863 357.951 520.09C358.034 520.315 358.15 520.486 358.301 520.606C358.454 520.722 358.639 520.78 358.855 520.78Z" fill="white"/>
<defs>
<filter id="filter0_f_704_1300" x="101" y="311" width="92" height="92" filterUnits="userSpaceOnUse" color-interpolation-filters="sRGB">
<feFlood flood-opacity="0" result="BackgroundImageFix"/>
<feBlend mode="normal" in="SourceGraphic" in2="BackgroundImageFix" result="shape"/>
<feGaussianBlur stdDeviation="3" result="effect1_foregroundBlur_704_1300"/>
</filter>
<filter id="filter1_f_704_1300" x="43" y="512" width="92" height="92" filterUnits="userSpaceOnUse" color-interpolation-filters="sRGB">
<feFlood flood-opacity="0" result="BackgroundImageFix"/>
<feBlend mode="normal" in="SourceGraphic" in2="BackgroundImageFix" result="shape"/>
<feGaussianBlur stdDeviation="3" result="effect1_foregroundBlur_704_1300"/>
</filter>
<filter id="filter2_f_704_1300" x="463" y="311" width="92" height="92" filterUnits="userSpaceOnUse" color-interpolation-filters="sRGB">
<feFlood flood-opacity="0" result="BackgroundImageFix"/>
<feBlend mode="normal" in="SourceGraphic" in2="BackgroundImageFix" result="shape"/>
<feGaussianBlur stdDeviation="3" result="effect1_foregroundBlur_704_1300"/>
</filter>
<filter id="filter3_f_704_1300" x="279" y="726" width="92" height="92" filterUnits="userSpaceOnUse" color-interpolation-filters="sRGB">
<feFlood flood-opacity="0" result="BackgroundImageFix"/>
<feBlend mode="normal" in="SourceGraphic" in2="BackgroundImageFix" result="shape"/>
<feGaussianBlur stdDeviation="3" result="effect1_foregroundBlur_704_1300"/>
</filter>
<filter id="filter4_f_704_1300" x="256" y="75" width="92" height="92" filterUnits="userSpaceOnUse" color-interpolation-filters="sRGB">
<feFlood flood-opacity="0" result="BackgroundImageFix"/>
<feBlend mode="normal" in="SourceGraphic" in2="BackgroundImageFix" result="shape"/>
<feGaussianBlur stdDeviation="3" result="effect1_foregroundBlur_704_1300"/>
</filter>
<filter id="filter5_f_704_1300" x="84" y="46" width="92" height="92" filterUnits="userSpaceOnUse" color-interpolation-filters="sRGB">
<feFlood flood-opacity="0" result="BackgroundImageFix"/>
<feBlend mode="normal" in="SourceGraphic" in2="BackgroundImageFix" result="shape"/>
<feGaussianBlur stdDeviation="3" result="effect1_foregroundBlur_704_1300"/>
</filter>
<filter id="filter6_f_704_1300" x="463" y="501" width="92" height="92" filterUnits="userSpaceOnUse" color-interpolation-filters="sRGB">
<feFlood flood-opacity="0" result="BackgroundImageFix"/>
<feBlend mode="normal" in="SourceGraphic" in2="BackgroundImageFix" result="shape"/>
<feGaussianBlur stdDeviation="3" result="effect1_foregroundBlur_704_1300"/>
</filter>
<filter id="filter7_f_704_1300" x="43" y="763" width="92" height="92" filterUnits="userSpaceOnUse" color-interpolation-filters="sRGB">
<feFlood flood-opacity="0" result="BackgroundImageFix"/>
<feBlend mode="normal" in="SourceGraphic" in2="BackgroundImageFix" result="shape"/>
<feGaussianBlur stdDeviation="3" result="effect1_foregroundBlur_704_1300"/>
</filter>
</defs>
</svg>
