<svg width="629" height="892" viewBox="0 0 629 892" fill="none" xmlns="http://www.w3.org/2000/svg">
<rect x="3" width="625" height="892" rx="42" fill="#020712"/>
<path d="M4 42C4 18.804 22.804 0 46 0H587C610.196 0 629 18.804 629 42V446H4V42Z" fill="#1B2D42" fill-opacity="0.2"/>
<path d="M3 446H628V850C628 873.196 609.196 892 586 892H45C21.804 892 3 873.196 3 850V446Z" fill="#FF433E" fill-opacity="0.1"/>
<g opacity="0.1" filter="url(#filter0_f_704_1301)">
<path d="M147 397C169.091 397 187 379.091 187 357C187 334.909 169.091 317 147 317C124.909 317 107 334.909 107 357C107 379.091 124.909 397 147 397Z" fill="#C3A634"/>
<path fill-rule="evenodd" clip-rule="evenodd" d="M140.12 353.525H150.905V359.24H140.12V371.285H146.922C149.615 371.285 151.818 370.923 153.533 370.193C155.248 369.465 156.593 368.457 157.57 367.167C158.57 365.826 159.25 364.274 159.56 362.63C159.921 360.775 160.097 358.889 160.085 357C160.097 355.111 159.921 353.225 159.56 351.37C159.251 349.726 158.57 348.174 157.57 346.832C156.593 345.542 155.245 344.535 153.533 343.807C151.818 343.077 149.615 342.715 146.922 342.715H140.12V353.528V353.525ZM133.205 359.24H129.5V353.528H133.205V337H149.578C152.603 337 155.22 337.525 157.433 338.567C159.645 339.615 161.45 341.042 162.852 342.855C164.252 344.665 165.295 346.785 165.977 349.213C166.66 351.64 167 354.237 167 357C167.017 359.631 166.672 362.251 165.975 364.787C165.295 367.212 164.253 369.335 162.85 371.145C161.45 372.958 159.645 374.385 157.433 375.432C155.22 376.477 152.6 377 149.578 377H133.205V359.24Z" fill="white"/>
</g>
<g opacity="0.1" filter="url(#filter1_f_704_1301)">
<path d="M89 598C111.091 598 129 580.091 129 558C129 535.909 111.091 518 89 518C66.9086 518 49 535.909 49 558C49 580.091 66.9086 598 89 598Z" fill="#C3A634"/>
<path fill-rule="evenodd" clip-rule="evenodd" d="M82.12 554.525H92.905V560.24H82.12V572.285H88.9225C91.615 572.285 93.8175 571.923 95.5325 571.193C97.2475 570.465 98.5925 569.457 99.57 568.167C100.57 566.826 101.25 565.274 101.56 563.63C101.921 561.775 102.097 559.889 102.085 558C102.097 556.111 101.921 554.225 101.56 552.37C101.251 550.726 100.57 549.174 99.57 547.832C98.5925 546.542 97.245 545.535 95.5325 544.807C93.8175 544.077 91.615 543.715 88.9225 543.715H82.12V554.528V554.525ZM75.205 560.24H71.5V554.528H75.205V538H91.5775C94.6025 538 97.22 538.525 99.4325 539.567C101.645 540.615 103.45 542.042 104.852 543.855C106.252 545.665 107.295 547.785 107.977 550.213C108.66 552.64 109 555.237 109 558C109.017 560.631 108.672 563.251 107.975 565.787C107.295 568.212 106.253 570.335 104.85 572.145C103.45 573.958 101.645 575.385 99.4325 576.432C97.22 577.477 94.6 578 91.5775 578H75.205V560.24Z" fill="white"/>
</g>
<g opacity="0.1" filter="url(#filter2_f_704_1301)">
<path d="M509 397C531.092 397 549 379.092 549 357C549 334.908 531.092 317 509 317C486.908 317 469 334.908 469 357C469 379.092 486.908 397 509 397Z" fill="#2B6DEF"/>
<path fill-rule="evenodd" clip-rule="evenodd" d="M525.668 337L517.345 341.799H517.337V351.398L517.308 351.403L492.334 337L484.004 341.8L484 341.798V371.642L492.329 376.444L492.334 376.406V376.442L500.667 371.642V361.008L508.982 365.8L508.987 365.81L508.993 365.806L517.338 361.029V371.646L525.632 376.426V376.451L525.653 376.438L525.668 376.447L525.68 376.423L533.963 371.651V341.825L534.001 341.803L525.668 337Z" fill="white"/>
</g>
<g opacity="0.1" filter="url(#filter3_f_704_1301)">
<path d="M325 812C347.092 812 365 794.092 365 772C365 749.908 347.092 732 325 732C302.908 732 285 749.908 285 772C285 794.092 302.908 812 325 812Z" fill="#2B6DEF"/>
<path fill-rule="evenodd" clip-rule="evenodd" d="M341.668 752L333.345 756.799H333.337V766.398L333.308 766.403L308.334 752L300.004 756.8L300 756.798V786.642L308.329 791.444L308.334 791.406V791.442L316.667 786.642V776.008L324.982 780.8L324.987 780.81L324.993 780.806L333.338 776.029V786.646L341.632 791.426V791.451L341.653 791.438L341.668 791.447L341.68 791.423L349.963 786.651V756.825L350.001 756.803L341.668 752Z" fill="white"/>
</g>
<g opacity="0.1" filter="url(#filter4_f_704_1301)">
<path d="M302 161C324.091 161 342 143.091 342 121C342 98.9086 324.091 81 302 81C279.909 81 262 98.9086 262 121C262 143.091 279.909 161 302 161Z" fill="#627EEA"/>
<path d="M303.245 91V113.175L321.988 121.55L303.245 91Z" fill="white" fill-opacity="0.602"/>
<path d="M303.245 91L284.5 121.55L303.245 113.175V91Z" fill="white"/>
<path d="M303.245 135.921V150.988L322 125.041L303.245 135.921Z" fill="white" fill-opacity="0.602"/>
<path d="M303.245 150.988V135.918L284.5 125.041L303.245 150.988Z" fill="white"/>
<path d="M303.245 132.433L321.988 121.551L303.245 113.181V132.433Z" fill="white" fill-opacity="0.2"/>
<path d="M284.5 121.551L303.245 132.433V113.181L284.5 121.551Z" fill="white" fill-opacity="0.602"/>
</g>
<g opacity="0.1" filter="url(#filter5_f_704_1301)">
<path d="M130 132C152.091 132 170 114.091 170 92C170 69.9086 152.091 52 130 52C107.909 52 90 69.9086 90 92C90 114.091 107.909 132 130 132Z" fill="#2775C9"/>
<path d="M129.375 120.75C113.15 120.75 100 107.6 100 91.375C100 75.15 113.15 62 129.375 62C145.6 62 158.75 75.15 158.75 91.375C158.75 99.1657 155.655 106.637 150.146 112.146C144.637 117.655 137.166 120.75 129.375 120.75ZM127.625 80.475C126.018 80.5547 124.498 81.2323 123.365 82.3748C122.232 83.5173 121.567 85.0422 121.5 86.65C121.5 89.675 123.35 91.65 127.275 92.475L130.025 93.125C132.7 93.75 133.8 94.65 133.8 96.175C133.8 97.7 131.875 99.2 129.375 99.2C128.487 99.2814 127.594 99.1112 126.798 98.7089C126.002 98.3066 125.336 97.6884 124.875 96.925C124.738 96.6353 124.523 96.3902 124.253 96.2177C123.983 96.0452 123.67 95.9524 123.35 95.95H121.875C121.762 95.971 121.653 96.0142 121.557 96.0772C121.46 96.1402 121.377 96.2216 121.312 96.3169C121.247 96.4122 121.201 96.5193 121.178 96.6323C121.154 96.7452 121.153 96.8617 121.175 96.975C121.534 98.4414 122.37 99.7473 123.55 100.688C124.731 101.629 126.19 102.152 127.7 102.175V104.275C127.7 104.742 127.886 105.191 128.216 105.521C128.547 105.852 128.995 106.037 129.462 106.037C129.93 106.037 130.378 105.852 130.709 105.521C131.039 105.191 131.225 104.742 131.225 104.275V102.15C132.932 102.131 134.564 101.446 135.773 100.241C136.983 99.0362 137.674 97.4069 137.7 95.7C137.7 92.525 135.875 90.7 131.55 89.775L129.05 89.225C126.55 88.6 125.375 87.775 125.375 86.375C125.375 84.975 126.875 83.425 129.375 83.425C130.162 83.3428 130.957 83.4902 131.662 83.8496C132.367 84.2089 132.954 84.7647 133.35 85.45C133.511 85.7922 133.765 86.0819 134.084 86.2854C134.402 86.489 134.772 86.598 135.15 86.6H136.325C136.592 86.5347 136.823 86.3671 136.968 86.1334C137.113 85.8996 137.16 85.6183 137.1 85.35C136.761 83.9961 136.004 82.7837 134.935 81.8859C133.867 80.988 132.542 80.4505 131.15 80.35V78.625C131.15 78.1576 130.964 77.7093 130.634 77.3787C130.303 77.0482 129.855 76.8625 129.388 76.8625C128.92 76.8625 128.472 77.0482 128.141 77.3787C127.811 77.7093 127.625 78.1576 127.625 78.625V80.475ZM107.35 91.375C107.353 95.9802 108.802 100.468 111.494 104.205C114.185 107.942 117.983 110.738 122.35 112.2H122.7C122.998 112.2 123.285 112.081 123.495 111.87C123.706 111.66 123.825 111.373 123.825 111.075V110.55C123.826 110.085 123.688 109.629 123.43 109.242C123.172 108.855 122.805 108.553 122.375 108.375C118.974 107.002 116.061 104.644 114.009 101.604C111.958 98.564 110.862 94.9801 110.862 91.3125C110.862 87.6449 111.958 84.061 114.009 81.0208C116.061 77.9806 118.974 75.6228 122.375 74.25C122.803 74.0762 123.169 73.7789 123.428 73.3959C123.686 73.013 123.824 72.5619 123.825 72.1V71.525C123.827 71.3562 123.788 71.1894 123.711 71.039C123.634 70.8885 123.523 70.7586 123.385 70.6605C123.248 70.5624 123.089 70.4988 122.922 70.4752C122.755 70.4516 122.584 70.4687 122.425 70.525C118.04 71.9752 114.223 74.7703 111.517 78.5131C108.811 82.256 107.353 86.7563 107.35 91.375ZM151.4 91.375C151.392 86.7741 149.94 82.2918 147.249 78.56C144.558 74.8283 140.763 72.0353 136.4 70.575H136.025C135.713 70.575 135.415 70.6988 135.194 70.9191C134.974 71.1395 134.85 71.4384 134.85 71.75V72.125C134.86 72.6072 135.009 73.0761 135.28 73.4754C135.551 73.8746 135.931 74.187 136.375 74.375C139.768 75.7518 142.673 78.1097 144.719 81.1471C146.764 84.1845 147.857 87.7631 147.857 91.425C147.857 95.0869 146.764 98.6655 144.719 101.703C142.673 104.74 139.768 107.098 136.375 108.475C135.939 108.665 135.567 108.975 135.301 109.369C135.036 109.763 134.888 110.225 134.875 110.7V111.125C134.877 111.31 134.923 111.493 135.009 111.657C135.095 111.821 135.219 111.962 135.37 112.07C135.521 112.177 135.695 112.247 135.879 112.274C136.062 112.301 136.249 112.284 136.425 112.225C140.791 110.758 144.586 107.955 147.273 104.214C149.961 100.473 151.404 95.9814 151.4 91.375Z" fill="white"/>
</g>
<g opacity="0.1" filter="url(#filter6_f_704_1301)">
<path d="M509 587C531.091 587 549 569.091 549 547C549 524.909 531.091 507 509 507C486.909 507 469 524.909 469 547C469 569.091 486.909 587 509 587Z" fill="#627EEA"/>
<path d="M510.245 517V539.175L528.988 547.55L510.245 517Z" fill="white" fill-opacity="0.602"/>
<path d="M510.245 517L491.5 547.55L510.245 539.175V517Z" fill="white"/>
<path d="M510.245 561.921V576.989L529 551.041L510.245 561.921Z" fill="white" fill-opacity="0.602"/>
<path d="M510.245 576.989V561.919L491.5 551.041L510.245 576.989Z" fill="white"/>
<path d="M510.245 558.432L528.988 547.55L510.245 539.18V558.432Z" fill="white" fill-opacity="0.2"/>
<path d="M491.5 547.55L510.245 558.432V539.18L491.5 547.55Z" fill="white" fill-opacity="0.602"/>
</g>
<g opacity="0.1" filter="url(#filter7_f_704_1301)">
<path d="M89 849C111.091 849 129 831.091 129 809C129 786.909 111.091 769 89 769C66.9086 769 49 786.909 49 809C49 831.091 66.9086 849 89 849Z" fill="#2775C9"/>
<path d="M88.375 837.75C72.15 837.75 59 824.6 59 808.375C59 792.15 72.15 779 88.375 779C104.6 779 117.75 792.15 117.75 808.375C117.75 816.166 114.655 823.637 109.146 829.146C103.637 834.655 96.1657 837.75 88.375 837.75ZM86.625 797.475C85.0178 797.555 83.4984 798.232 82.3651 799.375C81.2319 800.517 80.5666 802.042 80.5 803.65C80.5 806.675 82.35 808.65 86.275 809.475L89.025 810.125C91.7 810.75 92.8 811.65 92.8 813.175C92.8 814.7 90.875 816.2 88.375 816.2C87.487 816.281 86.594 816.111 85.7982 815.709C85.0024 815.307 84.3359 814.688 83.875 813.925C83.7384 813.635 83.5229 813.39 83.2531 813.218C82.9833 813.045 82.6702 812.952 82.35 812.95H80.875C80.7616 812.971 80.6534 813.014 80.5568 813.077C80.4601 813.14 80.3769 813.222 80.3118 813.317C80.2467 813.412 80.2012 813.519 80.1777 813.632C80.1542 813.745 80.1533 813.862 80.175 813.975C80.5343 815.441 81.3697 816.747 82.5504 817.688C83.731 818.629 85.1904 819.152 86.7 819.175V821.275C86.7 821.742 86.8857 822.191 87.2162 822.521C87.5468 822.852 87.9951 823.037 88.4625 823.037C88.9299 823.037 89.3782 822.852 89.7088 822.521C90.0393 822.191 90.225 821.742 90.225 821.275V819.15C91.932 819.131 93.5639 818.446 94.7733 817.241C95.9828 816.036 96.674 814.407 96.7 812.7C96.7 809.525 94.875 807.7 90.55 806.775L88.05 806.225C85.55 805.6 84.375 804.775 84.375 803.375C84.375 801.975 85.875 800.425 88.375 800.425C89.1623 800.343 89.9567 800.49 90.662 800.85C91.3674 801.209 91.9536 801.765 92.35 802.45C92.5107 802.792 92.765 803.082 93.0836 803.285C93.4022 803.489 93.772 803.598 94.15 803.6H95.325C95.5921 803.535 95.823 803.367 95.9679 803.133C96.1128 802.9 96.1603 802.618 96.1 802.35C95.7613 800.996 95.0037 799.784 93.9352 798.886C92.8667 797.988 91.542 797.45 90.15 797.35V795.625C90.15 795.158 89.9643 794.709 89.6338 794.379C89.3032 794.048 88.8549 793.862 88.3875 793.862C87.9201 793.862 87.4718 794.048 87.1412 794.379C86.8107 794.709 86.625 795.158 86.625 795.625V797.475ZM66.35 808.375C66.3529 812.98 67.8024 817.468 70.494 821.205C73.1855 824.942 76.983 827.738 81.35 829.2H81.7C81.9984 829.2 82.2845 829.081 82.4955 828.87C82.7065 828.66 82.825 828.373 82.825 828.075V827.55C82.8258 827.085 82.6885 826.629 82.4303 826.242C82.1722 825.855 81.8049 825.553 81.375 825.375C77.974 824.002 75.0609 821.644 73.0095 818.604C70.9581 815.564 69.862 811.98 69.862 808.313C69.862 804.645 70.9581 801.061 73.0095 798.021C75.0609 794.981 77.974 792.623 81.375 791.25C81.8029 791.076 82.1693 790.779 82.4276 790.396C82.6858 790.013 82.8242 789.562 82.825 789.1V788.525C82.8266 788.356 82.7875 788.189 82.711 788.039C82.6344 787.888 82.5227 787.759 82.3853 787.661C82.248 787.562 82.0889 787.499 81.9218 787.475C81.7546 787.452 81.5842 787.469 81.425 787.525C77.0399 788.975 73.2232 791.77 70.5171 795.513C67.8109 799.256 66.3529 803.756 66.35 808.375ZM110.4 808.375C110.392 803.774 108.94 799.292 106.249 795.56C103.558 791.828 99.763 789.035 95.4 787.575H95.025C94.7134 787.575 94.4145 787.699 94.1941 787.919C93.9738 788.14 93.85 788.438 93.85 788.75V789.125C93.8601 789.607 94.0094 790.076 94.28 790.475C94.5506 790.875 94.9309 791.187 95.375 791.375C98.7682 792.752 101.673 795.11 103.719 798.147C105.764 801.184 106.857 804.763 106.857 808.425C106.857 812.087 105.764 815.666 103.719 818.703C101.673 821.74 98.7682 824.098 95.375 825.475C94.9393 825.665 94.5668 825.975 94.3012 826.369C94.0355 826.763 93.8877 827.225 93.875 827.7V828.125C93.8771 828.31 93.9231 828.493 94.0091 828.657C94.0951 828.821 94.2187 828.962 94.3699 829.07C94.521 829.177 94.6954 829.247 94.8788 829.274C95.0622 829.301 95.2493 829.284 95.425 829.225C99.7914 827.758 103.586 824.955 106.273 821.214C108.961 817.473 110.404 812.981 110.4 808.375Z" fill="white"/>
</g>
<path d="M253.837 435.739H206.952C201.456 435.739 197 440.184 197 445.667C197 451.15 201.456 455.594 206.952 455.594H253.837C259.333 455.594 263.789 451.15 263.789 445.667C263.789 440.184 259.333 435.739 253.837 435.739Z" fill="white"/>
<path d="M411.047 435.739H364.162C358.666 435.739 354.21 439.962 354.21 445.17C354.21 450.379 358.666 454.602 364.162 454.602H411.047C416.543 454.602 420.999 450.379 420.999 445.17C420.999 439.962 416.543 435.739 411.047 435.739Z" fill="white"/>
<path d="M357.293 445.667C357.293 470.905 335.883 491.333 309.514 491.333C283.144 491.333 261.733 470.905 261.733 445.667C261.733 420.428 283.144 400 309.514 400C335.883 400 357.293 420.428 357.293 445.667Z" stroke="white" stroke-width="15"/>
<path d="M2 444.5H248" stroke="white" stroke-opacity="0.5" stroke-width="3" stroke-linecap="round" stroke-dasharray="6 6"/>
<path d="M381 446H627" stroke="white" stroke-opacity="0.5" stroke-width="3" stroke-linecap="round" stroke-dasharray="6 6"/>
<g opacity="0.7">
<path d="M549.24 832.588H558.854L542.115 874.111H531.018L514.279 832.588H523.893L536.531 864.104L549.24 832.588Z" fill="#FF433E"/>
<path d="M436.751 824H428V874.118H436.751V824Z" fill="#FF433E"/>
<path d="M460.714 874.125L441.516 849.059L460.714 824.007H471.698L452.769 849.059L471.698 874.125H460.714Z" fill="#FF433E"/>
<path d="M492.662 831.487C483.077 831.487 475.853 836.78 475.33 844.641L475.274 845.559H483.869L484.01 844.881C484.802 841.183 487.827 839.151 492.507 839.151C497.596 839.151 500.508 841.706 500.508 846.166V848.734L489.736 849.341C480.038 849.906 474.171 854.648 474.171 862.015C474.171 869.778 480.01 875 488.591 875C493.708 875 497.441 873.603 500.48 870.498V874.308H509.203V845.516C509.189 836.992 502.601 831.487 492.662 831.487ZM500.508 855.495V858.078C499.943 863.709 496.041 867.252 490.047 867.548C487.743 867.661 485.749 867.04 484.434 865.798C483.402 864.824 482.865 863.525 482.865 862.044C482.865 858.741 485.693 856.652 490.627 856.342L500.508 855.495Z" fill="#FF433E"/>
<path d="M581.119 831.487C571.534 831.487 564.31 836.78 563.787 844.641L563.731 845.559H572.326L572.467 844.881C573.259 841.183 576.284 839.151 580.964 839.151C586.053 839.151 588.965 841.706 588.965 846.166V848.734L578.193 849.341C568.495 849.906 562.628 854.648 562.628 862.015C562.628 869.778 568.467 875 577.048 875C582.165 875 585.898 873.603 588.937 870.498V874.308H597.66V845.516C597.646 836.992 591.058 831.487 581.119 831.487ZM588.965 855.495V858.078C588.4 863.709 584.498 867.252 578.504 867.548C576.2 867.661 574.206 867.04 572.892 865.798C571.859 864.824 571.322 863.525 571.322 862.044C571.322 858.741 574.15 856.652 579.084 856.342L588.965 855.495Z" fill="#FF433E"/>
</g>
<g opacity="0.9">
<path d="M520.999 68.4897H525.164V78.4647H525.234C525.794 77.578 526.57 76.8781 527.562 76.3649C528.553 75.8514 529.703 75.5948 531.009 75.5948C532.036 75.5948 533.062 75.7813 534.089 76.1546C535.116 76.528 536.032 77.0938 536.837 77.8523C537.642 78.6107 538.295 79.5556 538.797 80.6874C539.299 81.819 539.549 83.1549 539.549 84.6948C539.549 86.0015 539.322 87.2149 538.867 88.335C538.412 89.455 537.77 90.4175 536.942 91.2225C536.113 92.0276 535.127 92.6576 533.984 93.1125C532.841 93.5675 531.592 93.7951 530.239 93.7951C528.862 93.7951 527.608 93.5792 526.477 93.1475C525.345 92.7158 524.377 92.0975 523.572 91.2924C522.767 90.4874 522.137 89.5132 521.682 88.3698C521.226 87.2265 520.999 85.9549 520.999 84.555V68.4897ZM530.239 89.9099C531.779 89.9099 533.016 89.426 533.949 88.4575C534.883 87.4891 535.349 86.235 535.349 84.6948C535.349 83.1549 534.883 81.9006 533.949 80.9324C533.016 79.9639 531.779 79.4797 530.239 79.4797C528.699 79.4797 527.468 79.9639 526.547 80.9324C525.625 81.9006 525.164 83.1549 525.164 84.6948C525.164 86.235 525.625 87.4891 526.547 88.4575C527.468 89.426 528.699 89.9099 530.239 89.9099ZM555.195 90.8199H555.125C554.611 91.6834 553.923 92.3601 553.06 92.85C552.196 93.3399 551.193 93.5851 550.05 93.5851C549.046 93.5851 548.078 93.416 547.144 93.0776C546.211 92.7394 545.383 92.22 544.659 91.52C543.936 90.8199 543.359 89.9159 542.927 88.8074C542.495 87.6991 542.279 86.3749 542.279 84.8349V76.0498H546.445V84.8349C546.445 86.4916 546.841 87.7165 547.634 88.5098C548.428 89.3032 549.489 89.6999 550.819 89.6999C552.103 89.6999 553.153 89.2916 553.969 88.4749C554.786 87.6584 555.195 86.4448 555.195 84.8349V76.0498H559.36V92.7451C559.36 94.2617 559.138 95.551 558.695 96.6127C558.251 97.6743 557.639 98.5436 556.857 99.2202C556.075 99.8969 555.16 100.393 554.11 100.708C553.06 101.023 551.939 101.18 550.75 101.18C549.746 101.18 548.795 101.064 547.897 100.83C546.999 100.597 546.182 100.235 545.447 99.7451C544.712 99.2552 544.082 98.6368 543.557 97.8901C543.032 97.1435 542.653 96.2569 542.419 95.2302H546.584C547.261 96.7934 548.649 97.5752 550.75 97.5752C552.173 97.5752 553.27 97.2075 554.04 96.4726C554.81 95.7377 555.195 94.53 555.195 92.85V90.8199ZM577.49 86.69C577.49 87.8798 577.321 88.9241 576.983 89.8227C576.644 90.7207 576.16 91.4618 575.53 92.0452C574.9 92.6283 574.153 93.0659 573.29 93.3575C572.427 93.6493 571.47 93.7951 570.42 93.7951C569.37 93.7951 568.413 93.6493 567.55 93.3575C566.686 93.0659 565.94 92.6283 565.31 92.0452C564.68 91.4618 564.196 90.7207 563.857 89.8227C563.519 88.9241 563.35 87.8798 563.35 86.69V70.2746H567.515V76.0498H576.44V79.8296H567.515V86.69C567.515 87.8565 567.783 88.6849 568.32 89.175C568.857 89.665 569.557 89.9099 570.42 89.9099C571.283 89.9099 571.983 89.6709 572.52 89.1924C573.057 88.7141 573.325 87.8798 573.325 86.69V86.235H577.49V86.69ZM583.825 86.1649V86.235C584.105 87.4016 584.671 88.3234 585.522 89C586.374 89.6766 587.453 90.0151 588.76 90.0151C590.627 90.0151 591.992 89.4666 592.855 88.3698H597.3C596.647 90.0265 595.574 91.345 594.08 92.3251C592.587 93.305 590.814 93.7951 588.76 93.7951C587.383 93.7951 586.129 93.5675 584.998 93.1125C583.866 92.6576 582.886 92.0276 582.058 91.2225C581.229 90.4175 580.588 89.455 580.133 88.335C579.678 87.2149 579.45 86.0015 579.45 84.6948C579.45 83.3882 579.678 82.1748 580.133 81.0549C580.588 79.9347 581.229 78.9722 582.058 78.1672C582.886 77.3621 583.866 76.7323 584.998 76.2771C586.129 75.8222 587.383 75.5948 588.76 75.5948C590.114 75.5948 591.362 75.8222 592.505 76.2771C593.649 76.7323 594.623 77.3621 595.428 78.1672C596.233 78.9722 596.863 79.9347 597.318 81.0549C597.773 82.1748 598 83.3882 598 84.6948V86.1649L583.825 86.1649ZM588.76 79.3748C587.524 79.3748 586.491 79.6781 585.663 80.285C584.834 80.8915 584.257 81.7198 583.93 82.7698V82.8398L593.59 82.8398V82.7698C593.264 81.7198 592.68 80.8915 591.84 80.285C591 79.6781 589.974 79.3748 588.76 79.3748Z" fill="#456C91"/>
<path fill-rule="evenodd" clip-rule="evenodd" d="M479.397 10.9998C502.257 10.9998 520.795 29.5379 520.795 52.3971C520.795 75.2561 502.257 93.7944 479.397 93.7944C456.538 93.7944 438 75.2561 438 52.3971C438 29.5379 456.538 10.9998 479.397 10.9998ZM479.397 15.5237C499.759 15.5237 516.271 32.036 516.271 52.3971C516.271 72.7583 499.759 89.2706 479.397 89.2706C459.036 89.2706 442.524 72.7583 442.524 52.3971C442.524 32.036 459.036 15.5237 479.397 15.5237Z" fill="#456C91"/>
</g>
<path d="M230.02 633.245C230.155 634.062 230.927 634.615 231.745 634.48L245.064 632.277C245.881 632.142 246.434 631.37 246.299 630.553C246.164 629.735 245.392 629.182 244.574 629.318L232.735 631.275L230.777 619.436C230.642 618.619 229.87 618.066 229.053 618.201C228.235 618.336 227.682 619.108 227.818 619.926L230.02 633.245ZM232.72 633.873C233.704 632.499 234.676 631.13 235.636 629.766L233.182 628.04C232.227 629.396 231.26 630.759 230.28 632.127L232.72 633.873ZM241.245 621.648C243.109 618.901 244.921 616.175 246.683 613.472L244.17 611.833C242.418 614.522 240.616 617.232 238.762 619.964L241.245 621.648ZM252 605.136C253.76 602.315 255.464 599.517 257.114 596.742L254.535 595.209C252.897 597.965 251.204 600.744 249.455 603.548L252 605.136ZM262.063 588.199C263.703 585.289 265.282 582.405 266.802 579.545L264.153 578.138C262.645 580.975 261.078 583.837 259.449 586.725L262.063 588.199ZM271.298 570.809C272.795 567.8 274.225 564.818 275.59 561.863L272.866 560.606C271.514 563.534 270.096 566.489 268.612 569.472L271.298 570.809ZM279.553 552.923C280.871 549.82 282.115 546.745 283.288 543.699L280.488 542.621C279.328 545.635 278.096 548.678 276.792 551.75L279.553 552.923ZM286.669 534.426C287.751 531.282 288.755 528.168 289.684 525.082L286.812 524.217C285.894 527.265 284.901 530.342 283.832 533.45L286.669 534.426ZM292.356 515.497C293.185 512.258 293.932 509.048 294.598 505.868L291.661 505.253C291.005 508.389 290.268 511.556 289.45 514.753L292.356 515.497ZM296.395 496.179C296.927 492.876 297.373 489.603 297.735 486.359L294.754 486.026C294.397 489.221 293.958 492.446 293.433 495.701L296.395 496.179ZM298.586 476.479C298.787 473.155 298.9 469.859 298.929 466.59L295.929 466.564C295.901 469.781 295.789 473.025 295.591 476.298L298.586 476.479ZM298.76 456.704C298.617 453.388 298.388 450.099 298.077 446.834L295.091 447.118C295.397 450.333 295.622 453.57 295.763 456.833L298.76 456.704ZM296.886 436.996C296.406 433.723 295.845 430.472 295.208 427.242L292.265 427.822C292.893 431.006 293.445 434.208 293.918 437.431L296.886 436.996ZM293.066 417.586C292.279 414.387 291.419 411.205 290.491 408.038L287.612 408.881C288.528 412.008 289.377 415.148 290.153 418.303L293.066 417.586ZM287.515 398.605C286.465 395.494 285.352 392.396 284.181 389.306L281.376 390.37C282.535 393.427 283.635 396.49 284.673 399.564L287.515 398.605ZM280.525 380.14C279.263 377.119 277.948 374.105 276.583 371.095L273.851 372.334C275.204 375.318 276.507 378.305 277.757 381.297L280.525 380.14ZM272.388 362.161C270.959 359.216 269.486 356.272 267.973 353.327L265.305 354.698C266.808 357.624 268.271 360.547 269.689 363.471L272.388 362.161ZM263.387 344.618C261.84 341.747 260.259 338.873 258.646 335.994L256.029 337.46C257.634 340.326 259.208 343.185 260.746 346.041L263.387 344.618ZM253.772 327.434C252.136 324.605 250.474 321.769 248.788 318.925L246.207 320.455C247.888 323.291 249.545 326.117 251.175 328.935L253.772 327.434ZM243.74 310.495C242.056 307.707 240.352 304.91 238.632 302.1L236.073 303.667C237.791 306.472 239.492 309.265 241.172 312.046L243.74 310.495ZM233.475 293.718C231.761 290.943 230.033 288.154 228.295 285.35L225.745 286.931C227.483 289.734 229.21 292.521 230.923 295.295L233.475 293.718ZM223.126 277.015C221.41 274.246 219.686 271.461 217.957 268.659L215.404 270.235C217.134 273.039 218.859 275.826 220.576 278.595L223.126 277.015ZM212.801 260.272C211.105 257.502 209.406 254.713 207.707 251.905L205.141 253.458C206.843 256.271 208.544 259.064 210.242 261.838L212.801 260.272ZM202.654 243.491C200.983 240.688 199.315 237.864 197.65 235.019L195.061 236.534C196.73 239.387 198.403 242.217 200.077 245.026L202.654 243.491ZM192.745 226.547C191.93 225.124 191.117 223.696 190.305 222.261L187.695 223.739C188.509 225.178 189.325 226.611 190.142 228.038L192.745 226.547ZM228.54 633.489C228.811 635.124 230.355 636.23 231.989 635.96L258.628 631.555C260.262 631.284 261.368 629.74 261.098 628.105C260.828 626.471 259.283 625.365 257.649 625.635L233.97 629.551L230.055 605.872C229.784 604.238 228.24 603.132 226.605 603.402C224.971 603.672 223.865 605.217 224.135 606.851L228.54 633.489ZM233.939 634.747C234.926 633.369 235.9 631.996 236.862 630.629L231.955 627.176C231.003 628.53 230.038 629.889 229.061 631.253L233.939 634.747ZM242.487 622.49C244.355 619.735 246.173 617.002 247.94 614.291L242.913 611.014C241.167 613.695 239.369 616.397 237.521 619.122L242.487 622.49ZM253.273 605.93C255.038 603.1 256.748 600.293 258.403 597.509L253.246 594.443C251.613 597.189 249.925 599.959 248.182 602.754L253.273 605.93ZM263.369 588.935C265.016 586.015 266.601 583.12 268.126 580.249L262.828 577.434C261.326 580.26 259.765 583.111 258.143 585.989L263.369 588.935ZM272.641 571.477C274.144 568.456 275.581 565.461 276.951 562.492L271.504 559.977C270.158 562.891 268.747 565.834 267.269 568.804L272.641 571.477ZM280.934 553.509C282.258 550.391 283.509 547.301 284.688 544.238L279.089 542.082C277.934 545.08 276.709 548.107 275.411 551.164L280.934 553.509ZM288.088 534.913C289.175 531.752 290.185 528.619 291.121 525.514L285.376 523.784C284.463 526.814 283.477 529.872 282.414 532.962L288.088 534.913ZM293.809 515.869C294.644 512.608 295.395 509.378 296.066 506.175L290.193 504.946C289.541 508.06 288.81 511.205 287.997 514.381L293.809 515.869ZM297.875 496.418C298.412 493.091 298.861 489.794 299.226 486.525L293.263 485.86C292.909 489.031 292.473 492.231 291.952 495.462L297.875 496.418ZM300.083 476.57C300.286 473.22 300.4 469.898 300.429 466.604L294.43 466.55C294.401 469.742 294.291 472.96 294.094 476.207L300.083 476.57ZM300.259 456.639C300.114 453.298 299.884 449.983 299.57 446.692L293.597 447.26C293.901 450.449 294.124 453.661 294.264 456.898L300.259 456.639ZM298.37 436.778C297.886 433.48 297.321 430.206 296.68 426.951L290.793 428.113C291.416 431.273 291.965 434.451 292.434 437.649L298.37 436.778ZM294.523 417.227C293.73 414.006 292.864 410.803 291.93 407.616L286.172 409.303C287.083 412.41 287.925 415.528 288.697 418.661L294.523 417.227ZM288.936 398.125C287.88 394.996 286.761 391.88 285.583 388.774L279.973 390.902C281.126 393.942 282.22 396.988 283.251 400.044L288.936 398.125ZM281.909 379.562C280.641 376.527 279.32 373.499 277.949 370.476L272.485 372.953C273.832 375.925 275.129 378.898 276.373 381.875L281.909 379.562ZM273.738 361.506C272.303 358.55 270.825 355.596 269.307 352.642L263.971 355.384C265.469 358.3 266.926 361.213 268.34 364.126L273.738 361.506ZM264.708 343.907C263.157 341.028 261.571 338.146 259.955 335.26L254.72 338.193C256.322 341.052 257.891 343.905 259.426 346.753L264.708 343.907ZM255.07 326.683C253.432 323.849 251.766 321.009 250.078 318.16L244.917 321.22C246.595 324.052 248.25 326.873 249.876 329.686L255.07 326.683ZM245.024 309.719C243.338 306.929 241.633 304.128 239.911 301.317L234.794 304.45C236.511 307.253 238.21 310.043 239.888 312.822L245.024 309.719ZM234.751 292.93C233.036 290.153 231.308 287.363 229.57 284.559L224.47 287.721C226.208 290.524 227.934 293.311 229.646 296.083L234.751 292.93ZM224.401 276.225C222.685 273.456 220.962 270.673 219.233 267.871L214.127 271.022C215.859 273.828 217.584 276.616 219.301 279.386L224.401 276.225ZM214.08 259.489C212.385 256.72 210.688 253.934 208.991 251.129L203.857 254.234C205.561 257.05 207.263 259.845 208.962 262.621L214.08 259.489ZM203.942 242.723C202.274 239.923 200.607 237.103 198.945 234.261L193.766 237.291C195.437 240.148 197.112 242.982 198.788 245.794L203.942 242.723ZM194.047 225.802C193.233 224.381 192.421 222.955 191.611 221.523L186.389 224.477C187.205 225.919 188.022 227.354 188.84 228.783L194.047 225.802Z" fill="white"/>
<path d="M393.841 257.008C394.665 256.921 395.404 257.517 395.492 258.341L396.922 271.765C397.01 272.589 396.413 273.328 395.589 273.416C394.766 273.503 394.027 272.907 393.939 272.083L392.667 260.15L380.735 261.422C379.911 261.51 379.172 260.913 379.084 260.089C378.997 259.266 379.593 258.527 380.417 258.439L393.841 257.008ZM401.487 644.606C400.221 643.446 398.973 642.28 397.742 641.109L399.81 638.936C401.027 640.094 402.261 641.247 403.513 642.394L401.487 644.606ZM390.57 634.019C388.184 631.569 385.872 629.097 383.631 626.604L385.862 624.598C388.076 627.061 390.361 629.504 392.719 631.926L390.57 634.019ZM377.048 618.979C374.87 616.349 372.767 613.699 370.737 611.029L373.126 609.214C375.13 611.85 377.207 614.468 379.359 617.065L377.048 618.979ZM364.784 602.841C362.851 600.06 360.994 597.259 359.211 594.441L361.746 592.837C363.506 595.619 365.339 598.383 367.248 601.129L364.784 602.841ZM353.967 585.736C352.279 582.789 350.668 579.825 349.133 576.846L351.799 575.472C353.315 578.411 354.904 581.336 356.57 584.245L353.967 585.736ZM344.706 567.771C343.282 564.68 341.935 561.576 340.663 558.461L343.441 557.327C344.696 560.402 346.025 563.466 347.43 566.515L344.706 567.771ZM337.045 549.007C335.905 545.82 334.84 542.624 333.848 539.419L336.713 538.531C337.693 541.695 338.745 544.851 339.87 547.996L337.045 549.007ZM331.058 529.676C330.196 526.401 329.406 523.119 328.686 519.833L331.616 519.191C332.327 522.437 333.107 525.678 333.959 528.912L331.058 529.676ZM326.725 509.912C326.138 506.581 325.619 503.248 325.167 499.915L328.14 499.512C328.586 502.806 329.099 506.1 329.68 509.39L326.725 509.912ZM324.002 489.858C323.678 486.494 323.419 483.132 323.223 479.774L326.218 479.599C326.412 482.92 326.668 486.245 326.988 489.571L324.002 489.858ZM322.819 469.675C322.745 466.295 322.732 462.922 322.777 459.557L325.777 459.597C325.732 462.927 325.745 466.266 325.818 469.609L322.819 469.675ZM323.087 449.447C323.248 446.073 323.466 442.71 323.736 439.361L326.727 439.603C326.458 442.92 326.243 446.25 326.084 449.59L323.087 449.447ZM324.712 429.308C325.093 425.947 325.525 422.601 326.007 419.274L328.976 419.704C328.499 423.001 328.07 426.315 327.693 429.645L324.712 429.308ZM327.606 409.292C328.19 405.963 328.822 402.656 329.498 399.372L332.437 399.977C331.766 403.233 331.14 406.512 330.561 409.811L327.606 409.292ZM331.675 389.517C332.452 386.218 333.273 382.946 334.134 379.704L337.033 380.473C336.18 383.689 335.366 386.934 334.595 390.206L331.675 389.517ZM336.86 369.97C337.818 366.719 338.815 363.503 339.846 360.323L342.7 361.248C341.677 364.403 340.688 367.594 339.738 370.818L336.86 369.97ZM343.084 350.772C344.217 347.57 345.384 344.41 346.579 341.295L349.38 342.37C348.194 345.461 347.036 348.596 345.912 351.772L343.084 350.772ZM350.33 331.898C351.636 328.749 352.97 325.652 354.327 322.611L357.067 323.834C355.72 326.851 354.397 329.923 353.102 333.047L350.33 331.898ZM358.571 313.441C360.049 310.358 361.548 307.342 363.064 304.395L365.732 305.767C364.229 308.689 362.742 311.68 361.276 314.738L358.571 313.441ZM367.814 295.482C369.477 292.472 371.152 289.547 372.835 286.714L375.414 288.245C373.748 291.052 372.088 293.949 370.441 296.932L367.814 295.482ZM378.143 278.105C380.02 275.176 381.898 272.366 383.768 269.68L386.23 271.395C384.383 274.048 382.526 276.826 380.669 279.723L378.143 278.105ZM389.747 261.484C390.781 260.134 391.81 258.824 392.833 257.558L395.167 259.442C394.161 260.688 393.148 261.977 392.129 263.308L389.747 261.484ZM393.682 255.517C395.33 255.341 396.808 256.535 396.983 258.182L399.844 285.03C400.02 286.678 398.826 288.156 397.179 288.331C395.531 288.507 394.053 287.313 393.878 285.666L391.335 261.801L367.47 264.344C365.822 264.52 364.344 263.326 364.169 261.679C363.993 260.031 365.187 258.553 366.834 258.378L393.682 255.517ZM400.473 645.712C399.2 644.545 397.945 643.373 396.708 642.196L400.844 637.85C402.054 639.001 403.282 640.147 404.527 641.288L400.473 645.712ZM389.495 635.065C387.096 632.601 384.77 630.114 382.515 627.607L386.977 623.596C389.178 626.044 391.45 628.472 393.794 630.88L389.495 635.065ZM375.893 619.936C373.701 617.29 371.585 614.623 369.543 611.937L374.32 608.306C376.311 610.925 378.375 613.527 380.514 616.109L375.893 619.936ZM363.552 603.697C361.607 600.898 359.738 598.079 357.943 595.244L363.014 592.035C364.762 594.798 366.583 597.545 368.479 600.274L363.552 603.697ZM352.665 586.482C350.966 583.515 349.345 580.532 347.8 577.534L353.133 574.784C354.638 577.704 356.217 580.61 357.872 583.5L352.665 586.482ZM343.343 568.399C341.91 565.288 340.554 562.164 339.274 559.027L344.83 556.76C346.076 559.815 347.397 562.858 348.793 565.888L343.343 568.399ZM335.633 549.512C334.485 546.305 333.414 543.088 332.415 539.862L338.146 538.087C339.12 541.231 340.164 544.366 341.282 547.491L335.633 549.512ZM329.608 530.058C328.74 526.762 327.945 523.46 327.221 520.154L333.082 518.87C333.788 522.096 334.563 525.316 335.41 528.53L329.608 530.058ZM325.248 510.173C324.657 506.822 324.135 503.469 323.68 500.116L329.626 499.31C330.07 502.585 330.58 505.859 331.157 509.13L325.248 510.173ZM322.509 490.002C322.183 486.619 321.923 483.238 321.726 479.861L327.716 479.512C327.909 482.814 328.163 486.12 328.481 489.427L322.509 490.002ZM321.319 469.708C321.245 466.31 321.232 462.919 321.278 459.536L327.277 459.617C327.232 462.93 327.245 466.251 327.318 469.577L321.319 469.708ZM321.589 449.375C321.751 445.985 321.969 442.605 322.241 439.24L328.222 439.724C327.955 443.025 327.741 446.338 327.582 449.661L321.589 449.375ZM323.222 429.139C323.604 425.762 324.038 422.402 324.522 419.06L330.46 419.919C329.985 423.201 329.559 426.5 329.184 429.814L323.222 429.139ZM326.128 409.033C326.715 405.689 327.35 402.367 328.029 399.069L333.906 400.279C333.238 403.521 332.615 406.786 332.038 410.071L326.128 409.033ZM330.215 389.173C330.996 385.86 331.82 382.575 332.684 379.319L338.483 380.858C337.633 384.061 336.823 387.292 336.055 390.55L330.215 389.173ZM335.421 369.546C336.383 366.282 337.384 363.053 338.419 359.86L344.127 361.711C343.108 364.853 342.123 368.031 341.176 371.242L335.421 369.546ZM341.67 350.271C342.808 347.057 343.979 343.884 345.179 340.757L350.78 342.908C349.599 345.986 348.446 349.109 347.326 352.273L341.67 350.271ZM348.945 331.324C350.256 328.162 351.595 325.053 352.958 322L358.437 324.445C357.095 327.45 355.777 330.51 354.487 333.622L348.945 331.324ZM357.218 312.792C358.702 309.697 360.208 306.668 361.73 303.709L367.065 306.453C365.569 309.363 364.088 312.341 362.628 315.386L357.218 312.792ZM366.501 294.757C368.171 291.733 369.854 288.795 371.545 285.948L376.704 289.011C375.046 291.804 373.394 294.688 371.754 297.657L366.501 294.757ZM376.881 277.295C378.767 274.351 380.656 271.525 382.538 268.823L387.461 272.252C385.625 274.889 383.779 277.651 381.932 280.533L376.881 277.295ZM388.556 260.572C389.598 259.212 390.635 257.892 391.666 256.615L396.334 260.385C395.337 261.62 394.331 262.899 393.32 264.22L388.556 260.572Z" fill="white"/>
<path d="M443 206C443 197.716 449.716 191 458 191H598C606.284 191 613 197.716 613 206V240C613 248.284 606.284 255 598 255H458C449.716 255 443 248.284 443 240V206Z" fill="#0281EB" fill-opacity="0.2"/>
<path d="M492.557 235V211.727H496.068V231.977H506.614V235H492.557ZM514.131 211.727V235H510.619V211.727H514.131ZM538.028 211.727V235H534.801L522.972 217.932H522.756V235H519.244V211.727H522.494L534.335 228.818H534.551V211.727H538.028ZM543.151 235V211.727H557.741V214.75H546.662V221.841H556.98V224.852H546.662V231.977H557.878V235H543.151Z" fill="white"/>
<path d="M434 267C458.301 267 478 247.301 478 223C478 198.699 458.301 179 434 179C409.699 179 390 198.699 390 223C390 247.301 409.699 267 434 267Z" fill="white" stroke="#0281EB" stroke-width="6"/>
<path d="M408.304 213.497H458.992Z" fill="white"/>
<path d="M408.304 213.497H458.992" stroke="#0281EB" stroke-width="6" stroke-linecap="round"/>
<path d="M408.304 233.912H458.992Z" fill="white"/>
<path d="M408.304 233.912H458.992" stroke="#0281EB" stroke-width="6" stroke-linecap="round"/>
<path d="M20 206C20 197.716 26.7157 191 35 191H162.52C170.804 191 177.52 197.716 177.52 206V240.321C177.52 248.605 170.804 255.321 162.52 255.321H35C26.7157 255.321 20 248.605 20 240.321V206Z" fill="white" fill-opacity="0.2"/>
<path d="M50.3068 220.266C50.0871 219.576 49.7917 218.959 49.4205 218.413C49.0568 217.86 48.6212 217.391 48.1136 217.004C47.6061 216.61 47.0265 216.311 46.375 216.106C45.7311 215.902 45.0227 215.8 44.25 215.8C42.9394 215.8 41.7576 216.137 40.7045 216.811C39.6515 217.485 38.8182 218.474 38.2045 219.777C37.5985 221.072 37.2955 222.66 37.2955 224.538C37.2955 226.425 37.6023 228.019 38.2159 229.322C38.8295 230.625 39.6705 231.614 40.7386 232.288C41.8068 232.963 43.0227 233.3 44.3864 233.3C45.6515 233.3 46.7538 233.042 47.6932 232.527C48.6402 232.012 49.3712 231.285 49.8864 230.345C50.4091 229.398 50.6705 228.285 50.6705 227.004L51.5795 227.175H44.9205V224.277H54.0682V226.925C54.0682 228.879 53.6515 230.576 52.8182 232.016C51.9924 233.447 50.8485 234.553 49.3864 235.334C47.9318 236.114 46.2652 236.504 44.3864 236.504C42.2803 236.504 40.4318 236.019 38.8409 235.05C37.2576 234.08 36.0227 232.705 35.1364 230.925C34.25 229.137 33.8068 227.016 33.8068 224.561C33.8068 222.705 34.0644 221.038 34.5795 219.561C35.0947 218.084 35.8182 216.83 36.75 215.8C37.6894 214.762 38.7917 213.97 40.0568 213.425C41.3295 212.872 42.7197 212.595 44.2273 212.595C45.4848 212.595 46.6553 212.781 47.7386 213.152C48.8295 213.523 49.7992 214.05 50.6477 214.731C51.5038 215.413 52.2121 216.224 52.7727 217.163C53.3333 218.095 53.7121 219.129 53.9091 220.266H50.3068ZM58.5256 236.186V212.913H67.0483C68.6998 212.913 70.0672 213.186 71.1506 213.731C72.2339 214.269 73.0445 215 73.5824 215.925C74.1203 216.841 74.3892 217.875 74.3892 219.027C74.3892 219.997 74.2112 220.815 73.8551 221.481C73.4991 222.141 73.0218 222.671 72.4233 223.072C71.8324 223.466 71.1809 223.754 70.4688 223.936V224.163C71.2415 224.201 71.9953 224.451 72.7301 224.913C73.4725 225.368 74.0862 226.016 74.571 226.856C75.0559 227.697 75.2983 228.72 75.2983 229.925C75.2983 231.114 75.018 232.182 74.4574 233.129C73.9044 234.069 73.0483 234.815 71.8892 235.368C70.7301 235.913 69.2491 236.186 67.446 236.186H58.5256ZM62.0369 233.175H67.1051C68.7869 233.175 69.9915 232.849 70.7188 232.197C71.446 231.546 71.8097 230.731 71.8097 229.754C71.8097 229.019 71.6241 228.345 71.2528 227.731C70.8816 227.118 70.3513 226.629 69.6619 226.266C68.9801 225.902 68.1695 225.72 67.2301 225.72H62.0369V233.175ZM62.0369 222.981H66.7415C67.5294 222.981 68.2377 222.83 68.8665 222.527C69.5028 222.224 70.0066 221.8 70.3778 221.254C70.7566 220.701 70.946 220.05 70.946 219.3C70.946 218.338 70.6089 217.531 69.9347 216.879C69.2604 216.228 68.2263 215.902 66.8324 215.902H62.0369V222.981ZM77.6676 212.913H81.6562L87.7358 223.493H87.9858L94.0653 212.913H98.054L89.6108 227.05V236.186H86.1108V227.05L77.6676 212.913ZM101.69 215.936V212.913H119.702V215.936H112.44V236.186H108.94V215.936H101.69ZM123.682 236.186V212.913H138.273V215.936H127.193V223.027H137.511V226.038H127.193V233.163H138.409V236.186H123.682Z" fill="white"/>
<path d="M234 223C234 245.676 215.835 264 193.5 264C171.165 264 153 245.676 153 223C153 200.324 171.165 182 193.5 182C215.835 182 234 200.324 234 223Z" fill="white" stroke="#456C91" stroke-width="6"/>
<path d="M443 652C443 643.716 449.716 637 458 637H598C606.284 637 613 643.716 613 652V686C613 694.284 606.284 701 598 701H458C449.716 701 443 694.284 443 686V652Z" fill="#0281EB" fill-opacity="0.2"/>
<path d="M492.557 681V657.727H496.068V677.977H506.614V681H492.557ZM514.131 657.727V681H510.619V657.727H514.131ZM538.028 657.727V681H534.801L522.972 663.932H522.756V681H519.244V657.727H522.494L534.335 674.818H534.551V657.727H538.028ZM543.151 681V657.727H557.741V660.75H546.662V667.841H556.98V670.852H546.662V677.977H557.878V681H543.151Z" fill="white"/>
<path d="M434 713C458.301 713 478 693.301 478 669C478 644.699 458.301 625 434 625C409.699 625 390 644.699 390 669C390 693.301 409.699 713 434 713Z" fill="white" stroke="#0281EB" stroke-width="6"/>
<path d="M408.304 659.497H458.992Z" fill="white"/>
<path d="M408.304 659.497H458.992" stroke="#0281EB" stroke-width="6" stroke-linecap="round"/>
<path d="M408.304 679.912H458.992Z" fill="white"/>
<path d="M408.304 679.912H458.992" stroke="#0281EB" stroke-width="6" stroke-linecap="round"/>
<path d="M20 652C20 643.716 26.7157 637 35 637H162.52C170.804 637 177.52 643.716 177.52 652V686.321C177.52 694.605 170.804 701.321 162.52 701.321H35C26.7157 701.321 20 694.605 20 686.321V652Z" fill="white" fill-opacity="0.2"/>
<path d="M50.3068 666.265C50.0871 665.576 49.7917 664.958 49.4205 664.413C49.0568 663.86 48.6212 663.39 48.1136 663.004C47.6061 662.61 47.0265 662.311 46.375 662.106C45.7311 661.901 45.0227 661.799 44.25 661.799C42.9394 661.799 41.7576 662.136 40.7045 662.811C39.6515 663.485 38.8182 664.473 38.2045 665.776C37.5985 667.072 37.2955 668.659 37.2955 670.538C37.2955 672.424 37.6023 674.019 38.2159 675.322C38.8295 676.625 39.6705 677.614 40.7386 678.288C41.8068 678.962 43.0227 679.299 44.3864 679.299C45.6515 679.299 46.7538 679.042 47.6932 678.526C48.6402 678.011 49.3712 677.284 49.8864 676.345C50.4091 675.398 50.6705 674.284 50.6705 673.004L51.5795 673.174H44.9205V670.276H54.0682V672.924C54.0682 674.879 53.6515 676.576 52.8182 678.015C51.9924 679.447 50.8485 680.553 49.3864 681.333C47.9318 682.114 46.2652 682.504 44.3864 682.504C42.2803 682.504 40.4318 682.019 38.8409 681.049C37.2576 680.079 36.0227 678.704 35.1364 676.924C34.25 675.136 33.8068 673.015 33.8068 670.561C33.8068 668.704 34.0644 667.038 34.5795 665.561C35.0947 664.083 35.8182 662.829 36.75 661.799C37.6894 660.761 38.7917 659.97 40.0568 659.424C41.3295 658.871 42.7197 658.595 44.2273 658.595C45.4848 658.595 46.6553 658.78 47.7386 659.151C48.8295 659.523 49.7992 660.049 50.6477 660.731C51.5038 661.413 52.2121 662.223 52.7727 663.163C53.3333 664.095 53.7121 665.129 53.9091 666.265H50.3068ZM58.5256 682.186V658.913H67.0483C68.6998 658.913 70.0672 659.186 71.1506 659.731C72.2339 660.269 73.0445 661 73.5824 661.924C74.1203 662.841 74.3892 663.875 74.3892 665.026C74.3892 665.996 74.2112 666.814 73.8551 667.481C73.4991 668.14 73.0218 668.67 72.4233 669.072C71.8324 669.466 71.1809 669.754 70.4688 669.936V670.163C71.2415 670.201 71.9953 670.451 72.7301 670.913C73.4725 671.367 74.0862 672.015 74.571 672.856C75.0559 673.697 75.2983 674.72 75.2983 675.924C75.2983 677.114 75.018 678.182 74.4574 679.129C73.9044 680.068 73.0483 680.814 71.8892 681.367C70.7301 681.913 69.2491 682.186 67.446 682.186H58.5256ZM62.0369 679.174H67.1051C68.7869 679.174 69.9915 678.848 70.7188 678.197C71.446 677.545 71.8097 676.731 71.8097 675.754C71.8097 675.019 71.6241 674.345 71.2528 673.731C70.8816 673.117 70.3513 672.629 69.6619 672.265C68.9801 671.901 68.1695 671.72 67.2301 671.72H62.0369V679.174ZM62.0369 668.981H66.7415C67.5294 668.981 68.2377 668.829 68.8665 668.526C69.5028 668.223 70.0066 667.799 70.3778 667.254C70.7566 666.701 70.946 666.049 70.946 665.299C70.946 664.337 70.6089 663.53 69.9347 662.879C69.2604 662.227 68.2263 661.901 66.8324 661.901H62.0369V668.981ZM77.6676 658.913H81.6562L87.7358 669.492H87.9858L94.0653 658.913H98.054L89.6108 673.049V682.186H86.1108V673.049L77.6676 658.913ZM101.69 661.936V658.913H119.702V661.936H112.44V682.186H108.94V661.936H101.69ZM123.682 682.186V658.913H138.273V661.936H127.193V669.026H137.511V672.038H127.193V679.163H138.409V682.186H123.682Z" fill="white"/>
<path d="M234 669C234 691.676 215.835 710 193.5 710C171.165 710 153 691.676 153 669C153 646.324 171.165 628 193.5 628C215.835 628 234 646.324 234 669Z" fill="white" stroke="#456C91" stroke-width="6"/>
<path d="M443 652C443 643.716 449.716 637 458 637H598C606.284 637 613 643.716 613 652V686C613 694.284 606.284 701 598 701H458C449.716 701 443 694.284 443 686V652Z" fill="#0281EB" fill-opacity="0.2"/>
<path d="M492.557 681V657.727H496.068V677.977H506.614V681H492.557ZM514.131 657.727V681H510.619V657.727H514.131ZM538.028 657.727V681H534.801L522.972 663.932H522.756V681H519.244V657.727H522.494L534.335 674.818H534.551V657.727H538.028ZM543.151 681V657.727H557.741V660.75H546.662V667.841H556.98V670.852H546.662V677.977H557.878V681H543.151Z" fill="white"/>
<path d="M434 713C458.301 713 478 693.301 478 669C478 644.699 458.301 625 434 625C409.699 625 390 644.699 390 669C390 693.301 409.699 713 434 713Z" fill="white" stroke="#0281EB" stroke-width="6"/>
<path d="M408.304 659.497H458.992Z" fill="white"/>
<path d="M408.304 659.497H458.992" stroke="#0281EB" stroke-width="6" stroke-linecap="round"/>
<path d="M408.304 679.912H458.992Z" fill="white"/>
<path d="M408.304 679.912H458.992" stroke="#0281EB" stroke-width="6" stroke-linecap="round"/>
<path d="M20 652C20 643.716 26.7157 637 35 637H162.52C170.804 637 177.52 643.716 177.52 652V686.321C177.52 694.605 170.804 701.321 162.52 701.321H35C26.7157 701.321 20 694.605 20 686.321V652Z" fill="white" fill-opacity="0.2"/>
<path d="M50.3068 666.265C50.0871 665.576 49.7917 664.958 49.4205 664.413C49.0568 663.86 48.6212 663.39 48.1136 663.004C47.6061 662.61 47.0265 662.311 46.375 662.106C45.7311 661.901 45.0227 661.799 44.25 661.799C42.9394 661.799 41.7576 662.136 40.7045 662.811C39.6515 663.485 38.8182 664.473 38.2045 665.776C37.5985 667.072 37.2955 668.659 37.2955 670.538C37.2955 672.424 37.6023 674.019 38.2159 675.322C38.8295 676.625 39.6705 677.614 40.7386 678.288C41.8068 678.962 43.0227 679.299 44.3864 679.299C45.6515 679.299 46.7538 679.042 47.6932 678.526C48.6402 678.011 49.3712 677.284 49.8864 676.345C50.4091 675.398 50.6705 674.284 50.6705 673.004L51.5795 673.174H44.9205V670.276H54.0682V672.924C54.0682 674.879 53.6515 676.576 52.8182 678.015C51.9924 679.447 50.8485 680.553 49.3864 681.333C47.9318 682.114 46.2652 682.504 44.3864 682.504C42.2803 682.504 40.4318 682.019 38.8409 681.049C37.2576 680.079 36.0227 678.704 35.1364 676.924C34.25 675.136 33.8068 673.015 33.8068 670.561C33.8068 668.704 34.0644 667.038 34.5795 665.561C35.0947 664.083 35.8182 662.829 36.75 661.799C37.6894 660.761 38.7917 659.97 40.0568 659.424C41.3295 658.871 42.7197 658.595 44.2273 658.595C45.4848 658.595 46.6553 658.78 47.7386 659.151C48.8295 659.523 49.7992 660.049 50.6477 660.731C51.5038 661.413 52.2121 662.223 52.7727 663.163C53.3333 664.095 53.7121 665.129 53.9091 666.265H50.3068ZM58.5256 682.186V658.913H67.0483C68.6998 658.913 70.0672 659.186 71.1506 659.731C72.2339 660.269 73.0445 661 73.5824 661.924C74.1203 662.841 74.3892 663.875 74.3892 665.026C74.3892 665.996 74.2112 666.814 73.8551 667.481C73.4991 668.14 73.0218 668.67 72.4233 669.072C71.8324 669.466 71.1809 669.754 70.4688 669.936V670.163C71.2415 670.201 71.9953 670.451 72.7301 670.913C73.4725 671.367 74.0862 672.015 74.571 672.856C75.0559 673.697 75.2983 674.72 75.2983 675.924C75.2983 677.114 75.018 678.182 74.4574 679.129C73.9044 680.068 73.0483 680.814 71.8892 681.367C70.7301 681.913 69.2491 682.186 67.446 682.186H58.5256ZM62.0369 679.174H67.1051C68.7869 679.174 69.9915 678.848 70.7188 678.197C71.446 677.545 71.8097 676.731 71.8097 675.754C71.8097 675.019 71.6241 674.345 71.2528 673.731C70.8816 673.117 70.3513 672.629 69.6619 672.265C68.9801 671.901 68.1695 671.72 67.2301 671.72H62.0369V679.174ZM62.0369 668.981H66.7415C67.5294 668.981 68.2377 668.829 68.8665 668.526C69.5028 668.223 70.0066 667.799 70.3778 667.254C70.7566 666.701 70.946 666.049 70.946 665.299C70.946 664.337 70.6089 663.53 69.9347 662.879C69.2604 662.227 68.2263 661.901 66.8324 661.901H62.0369V668.981ZM77.6676 658.913H81.6562L87.7358 669.492H87.9858L94.0653 658.913H98.054L89.6108 673.049V682.186H86.1108V673.049L77.6676 658.913ZM101.69 661.936V658.913H119.702V661.936H112.44V682.186H108.94V661.936H101.69ZM123.682 682.186V658.913H138.273V661.936H127.193V669.026H137.511V672.038H127.193V679.163H138.409V682.186H123.682Z" fill="white"/>
<path d="M234 669C234 691.676 215.835 710 193.5 710C171.165 710 153 691.676 153 669C153 646.324 171.165 628 193.5 628C215.835 628 234 646.324 234 669Z" fill="white" stroke="#456C91" stroke-width="6"/>
<path d="M246.068 240.727V264H242.545V244.25H242.409L236.841 247.886V244.523L242.648 240.727H246.068Z" fill="white" fill-opacity="0.6"/>
<path d="M241.239 707V704.455L249.114 696.295C249.955 695.409 250.648 694.633 251.193 693.966C251.746 693.292 252.159 692.652 252.432 692.045C252.705 691.439 252.841 690.795 252.841 690.114C252.841 689.341 252.659 688.674 252.295 688.114C251.932 687.545 251.436 687.11 250.807 686.807C250.178 686.496 249.47 686.341 248.682 686.341C247.848 686.341 247.121 686.511 246.5 686.852C245.879 687.193 245.402 687.674 245.068 688.295C244.735 688.917 244.568 689.644 244.568 690.477H241.216C241.216 689.061 241.542 687.822 242.193 686.761C242.845 685.701 243.739 684.879 244.875 684.295C246.011 683.705 247.303 683.409 248.75 683.409C250.212 683.409 251.5 683.701 252.614 684.284C253.735 684.86 254.61 685.648 255.239 686.648C255.867 687.64 256.182 688.761 256.182 690.011C256.182 690.875 256.019 691.72 255.693 692.545C255.375 693.371 254.818 694.292 254.023 695.307C253.227 696.314 252.121 697.538 250.705 698.977L246.08 703.818V703.989H256.557V707H241.239Z" fill="white" fill-opacity="0.6"/>
<path d="M412.341 619.318C410.78 619.318 409.386 619.049 408.159 618.511C406.939 617.973 405.973 617.227 405.261 616.273C404.557 615.311 404.178 614.197 404.125 612.932H407.693C407.739 613.621 407.97 614.22 408.386 614.727C408.811 615.227 409.364 615.614 410.045 615.886C410.727 616.159 411.485 616.295 412.318 616.295C413.235 616.295 414.045 616.136 414.75 615.818C415.462 615.5 416.019 615.057 416.42 614.489C416.822 613.913 417.023 613.25 417.023 612.5C417.023 611.72 416.822 611.034 416.42 610.443C416.027 609.845 415.447 609.375 414.682 609.034C413.924 608.693 413.008 608.523 411.932 608.523H409.966V605.659H411.932C412.795 605.659 413.553 605.504 414.205 605.193C414.864 604.883 415.379 604.451 415.75 603.898C416.121 603.337 416.307 602.682 416.307 601.932C416.307 601.212 416.144 600.587 415.818 600.057C415.5 599.519 415.045 599.098 414.455 598.795C413.871 598.492 413.182 598.341 412.386 598.341C411.629 598.341 410.92 598.481 410.261 598.761C409.61 599.034 409.08 599.428 408.67 599.943C408.261 600.451 408.042 601.061 408.011 601.773H404.614C404.652 600.515 405.023 599.409 405.727 598.455C406.439 597.5 407.379 596.754 408.545 596.216C409.712 595.678 411.008 595.409 412.432 595.409C413.924 595.409 415.212 595.701 416.295 596.284C417.386 596.86 418.227 597.629 418.818 598.591C419.417 599.553 419.712 600.606 419.705 601.75C419.712 603.053 419.348 604.159 418.614 605.068C417.886 605.977 416.917 606.587 415.705 606.898V607.08C417.25 607.314 418.447 607.928 419.295 608.92C420.152 609.913 420.576 611.144 420.568 612.614C420.576 613.894 420.22 615.042 419.5 616.057C418.788 617.072 417.814 617.871 416.58 618.455C415.345 619.03 413.932 619.318 412.341 619.318Z" fill="white" fill-opacity="0.6"/>
<path d="M265.771 657V646.818H268.232V655.001H272.467V657H265.771ZM276.202 646.818V657H273.741V646.818H276.202ZM286.413 646.818V657H284.325L280.273 651.124H280.208V657H277.747V646.818H279.865L283.872 652.685H283.957V646.818H286.413ZM287.96 657V646.818H295.059V648.817H290.421V650.905H294.697V652.908H290.421V655.001H295.059V657H287.96ZM302.398 657.109C301.834 657.109 301.322 656.964 300.861 656.672C300.401 656.38 300.033 655.943 299.758 655.359C299.483 654.776 299.345 654.052 299.345 653.187C299.345 652.289 299.488 651.549 299.773 650.969C300.058 650.389 300.43 649.96 300.891 649.682C301.355 649.403 301.854 649.264 302.388 649.264C302.789 649.264 303.132 649.334 303.417 649.473C303.702 649.609 303.937 649.785 304.123 650C304.308 650.215 304.449 650.439 304.545 650.671H304.595V646.818H307.026V657H304.62V655.762H304.545C304.443 655.997 304.297 656.218 304.108 656.423C303.919 656.629 303.682 656.795 303.397 656.92C303.115 657.046 302.782 657.109 302.398 657.109ZM303.243 655.215C303.538 655.215 303.79 655.132 303.998 654.967C304.207 654.798 304.368 654.561 304.481 654.256C304.593 653.951 304.65 653.593 304.65 653.182C304.65 652.764 304.593 652.405 304.481 652.103C304.371 651.801 304.211 651.569 303.998 651.407C303.79 651.245 303.538 651.163 303.243 651.163C302.941 651.163 302.686 651.246 302.477 651.412C302.268 651.578 302.109 651.811 302 652.113C301.894 652.415 301.841 652.771 301.841 653.182C301.841 653.593 301.895 653.951 302.005 654.256C302.114 654.561 302.272 654.798 302.477 654.967C302.686 655.132 302.941 655.215 303.243 655.215ZM310.766 657H308.121L311.556 646.818H314.833L318.268 657H315.623L313.232 649.384H313.152L310.766 657ZM310.413 652.993H315.941V654.862H310.413V652.993ZM319.364 659.864V649.364H321.771V650.671H321.845C321.945 650.439 322.085 650.215 322.268 650C322.453 649.785 322.689 649.609 322.974 649.473C323.262 649.334 323.607 649.264 324.008 649.264C324.538 649.264 325.034 649.403 325.494 649.682C325.958 649.96 326.333 650.389 326.618 650.969C326.903 651.549 327.045 652.289 327.045 653.187C327.045 654.052 326.908 654.776 326.633 655.359C326.361 655.943 325.993 656.38 325.529 656.672C325.068 656.964 324.556 657.109 323.993 657.109C323.608 657.109 323.275 657.046 322.994 656.92C322.712 656.795 322.475 656.629 322.283 656.423C322.094 656.218 321.948 655.997 321.845 655.762H321.795V659.864H319.364ZM321.746 653.182C321.746 653.593 321.8 653.951 321.91 654.256C322.022 654.561 322.183 654.798 322.392 654.967C322.604 655.132 322.858 655.215 323.153 655.215C323.451 655.215 323.705 655.132 323.913 654.967C324.122 654.798 324.28 654.561 324.386 654.256C324.495 653.951 324.55 653.593 324.55 653.182C324.55 652.771 324.495 652.415 324.386 652.113C324.28 651.811 324.122 651.578 323.913 651.412C323.708 651.246 323.454 651.163 323.153 651.163C322.854 651.163 322.601 651.245 322.392 651.407C322.183 651.569 322.022 651.801 321.91 652.103C321.8 652.405 321.746 652.764 321.746 653.182ZM328.319 659.864V649.364H330.726V650.671H330.8C330.9 650.439 331.041 650.215 331.223 650C331.408 649.785 331.644 649.609 331.929 649.473C332.217 649.334 332.562 649.264 332.963 649.264C333.493 649.264 333.989 649.403 334.449 649.682C334.913 649.96 335.288 650.389 335.573 650.969C335.858 651.549 336.001 652.289 336.001 653.187C336.001 654.052 335.863 654.776 335.588 655.359C335.316 655.943 334.948 656.38 334.484 656.672C334.023 656.964 333.511 657.109 332.948 657.109C332.564 657.109 332.23 657.046 331.949 656.92C331.667 656.795 331.43 656.629 331.238 656.423C331.049 656.218 330.903 655.997 330.8 655.762H330.751V659.864H328.319ZM330.701 653.182C330.701 653.593 330.756 653.951 330.865 654.256C330.978 654.561 331.138 654.798 331.347 654.967C331.559 655.132 331.813 655.215 332.108 655.215C332.406 655.215 332.66 655.132 332.868 654.967C333.077 654.798 333.235 654.561 333.341 654.256C333.45 653.951 333.505 653.593 333.505 653.182C333.505 652.771 333.45 652.415 333.341 652.113C333.235 651.811 333.077 651.578 332.868 651.412C332.663 651.246 332.409 651.163 332.108 651.163C331.809 651.163 331.556 651.245 331.347 651.407C331.138 651.569 330.978 651.801 330.865 652.103C330.756 652.405 330.701 652.764 330.701 653.182Z" fill="#0281EB"/>
<path d="M384.061 670.061C384.646 669.475 384.646 668.525 384.061 667.939L374.515 658.393C373.929 657.808 372.979 657.808 372.393 658.393C371.808 658.979 371.808 659.929 372.393 660.515L380.879 669L372.393 677.485C371.808 678.071 371.808 679.021 372.393 679.607C372.979 680.192 373.929 680.192 374.515 679.607L384.061 670.061ZM211 670.5H215.778V667.5H211V670.5ZM225.333 670.5H234.889V667.5H225.333V670.5ZM244.444 670.5H254V667.5H244.444V670.5ZM263.556 670.5H273.111V667.5H263.556V670.5ZM282.667 670.5H292.222V667.5H282.667V670.5ZM301.778 670.5H311.333V667.5H301.778V670.5ZM320.889 670.5H330.444V667.5H320.889V670.5ZM340 670.5H349.556V667.5H340V670.5ZM359.111 670.5H368.667V667.5H359.111V670.5ZM378.222 670.5H383V667.5H378.222V670.5ZM385.121 671.121C386.293 669.95 386.293 668.05 385.121 666.879L366.029 647.787C364.858 646.615 362.958 646.615 361.787 647.787C360.615 648.958 360.615 650.858 361.787 652.029L378.757 669L361.787 685.971C360.615 687.142 360.615 689.042 361.787 690.213C362.958 691.385 364.858 691.385 366.029 690.213L385.121 671.121ZM211 672H215.778V666H211V672ZM225.333 672H234.889V666H225.333V672ZM244.444 672H254V666H244.444V672ZM263.556 672H273.111V666H263.556V672ZM282.667 672H292.222V666H282.667V672ZM301.778 672H311.333V666H301.778V672ZM320.889 672H330.444V666H320.889V672ZM340 672H349.556V666H340V672ZM359.111 672H368.667V666H359.111V672ZM378.222 672H383V666H378.222V672Z" fill="white"/>
<path d="M254 507.464H363V523.464H254V507.464Z" fill="#1B0D16"/>
<path d="M261.75 519.119C261.04 519.119 260.432 518.979 259.926 518.697C259.42 518.413 259.033 518.018 258.763 517.513C258.493 517.004 258.358 516.415 258.358 515.744C258.358 515.074 258.493 514.486 258.763 513.98C259.033 513.472 259.42 513.077 259.926 512.795C260.432 512.511 261.04 512.369 261.75 512.369C262.392 512.369 262.947 512.486 263.416 512.719C263.888 512.949 264.253 513.276 264.511 513.699C264.77 514.119 264.901 514.614 264.903 515.182H262.722C262.69 514.838 262.591 514.577 262.423 514.398C262.259 514.216 262.045 514.125 261.784 514.125C261.58 514.125 261.401 514.185 261.247 514.304C261.094 514.42 260.974 514.598 260.889 514.837C260.804 515.072 260.761 515.369 260.761 515.727C260.761 516.085 260.804 516.384 260.889 516.622C260.974 516.858 261.094 517.036 261.247 517.155C261.401 517.271 261.58 517.33 261.784 517.33C261.957 517.33 262.111 517.29 262.244 517.21C262.378 517.128 262.486 517.009 262.568 516.852C262.653 516.693 262.705 516.5 262.722 516.273H264.903C264.895 516.849 264.763 517.352 264.507 517.781C264.251 518.207 263.889 518.537 263.42 518.77C262.955 519.003 262.398 519.119 261.75 519.119ZM269.027 519.119C268.317 519.119 267.709 518.979 267.203 518.697C266.698 518.413 266.31 518.018 266.04 517.513C265.77 517.004 265.635 516.415 265.635 515.744C265.635 515.074 265.77 514.486 266.04 513.98C266.31 513.472 266.698 513.077 267.203 512.795C267.709 512.511 268.317 512.369 269.027 512.369C269.738 512.369 270.346 512.511 270.851 512.795C271.357 513.077 271.745 513.472 272.015 513.98C272.284 514.486 272.419 515.074 272.419 515.744C272.419 516.415 272.284 517.004 272.015 517.513C271.745 518.018 271.357 518.413 270.851 518.697C270.346 518.979 269.738 519.119 269.027 519.119ZM269.044 517.381C269.243 517.381 269.415 517.314 269.56 517.18C269.705 517.047 269.817 516.857 269.897 516.609C269.976 516.362 270.016 516.068 270.016 515.727C270.016 515.384 269.976 515.089 269.897 514.845C269.817 514.598 269.705 514.408 269.56 514.274C269.415 514.141 269.243 514.074 269.044 514.074C268.834 514.074 268.654 514.141 268.503 514.274C268.353 514.408 268.238 514.598 268.158 514.845C268.078 515.089 268.039 515.384 268.039 515.727C268.039 516.068 268.078 516.362 268.158 516.609C268.238 516.857 268.353 517.047 268.503 517.18C268.654 517.314 268.834 517.381 269.044 517.381ZM277.618 516.136V512.455H279.971V519H277.738V517.756H277.669C277.527 518.173 277.279 518.5 276.924 518.736C276.569 518.969 276.147 519.085 275.658 519.085C275.201 519.085 274.8 518.98 274.456 518.77C274.115 518.56 273.85 518.27 273.659 517.901C273.472 517.531 273.377 517.108 273.374 516.631V512.455H275.726V516.136C275.729 516.46 275.811 516.714 275.973 516.899C276.138 517.084 276.368 517.176 276.664 517.176C276.86 517.176 277.029 517.135 277.171 517.053C277.316 516.967 277.426 516.848 277.503 516.695C277.583 516.538 277.621 516.352 277.618 516.136ZM283.519 515.318V519H281.167V512.455H283.4V513.699H283.468C283.61 513.284 283.86 512.959 284.218 512.723C284.579 512.487 284.999 512.369 285.479 512.369C285.942 512.369 286.344 512.476 286.685 512.689C287.029 512.899 287.295 513.189 287.482 513.558C287.673 513.928 287.766 514.349 287.763 514.824V519H285.411V515.318C285.414 514.994 285.332 514.74 285.164 514.555C284.999 514.371 284.769 514.278 284.474 514.278C284.281 514.278 284.112 514.321 283.967 514.406C283.825 514.489 283.715 514.608 283.638 514.764C283.562 514.918 283.522 515.102 283.519 515.318ZM292.828 512.455V514.159H288.516V512.455H292.828ZM289.351 510.886H291.703V516.895C291.703 516.986 291.719 517.062 291.75 517.125C291.781 517.185 291.83 517.23 291.895 517.261C291.96 517.29 292.044 517.304 292.146 517.304C292.217 517.304 292.3 517.295 292.393 517.278C292.49 517.261 292.561 517.247 292.607 517.236L292.947 518.889C292.842 518.92 292.692 518.959 292.496 519.004C292.303 519.05 292.072 519.08 291.805 519.094C291.266 519.122 290.813 519.067 290.446 518.928C290.08 518.786 289.804 518.562 289.619 518.259C289.435 517.955 289.345 517.574 289.351 517.116V510.886ZM296.854 519.119C296.155 519.119 295.553 518.986 295.047 518.719C294.544 518.449 294.157 518.062 293.884 517.56C293.614 517.054 293.479 516.449 293.479 515.744C293.479 515.068 293.615 514.477 293.888 513.972C294.161 513.466 294.546 513.072 295.043 512.791C295.54 512.51 296.127 512.369 296.803 512.369C297.297 512.369 297.745 512.446 298.145 512.599C298.546 512.753 298.888 512.976 299.172 513.268C299.456 513.558 299.675 513.911 299.828 514.325C299.982 514.74 300.059 515.207 300.059 515.727V516.273H294.212V514.977H297.894C297.891 514.79 297.843 514.625 297.749 514.483C297.658 514.338 297.534 514.226 297.378 514.146C297.225 514.064 297.05 514.023 296.854 514.023C296.664 514.023 296.489 514.064 296.33 514.146C296.171 514.226 296.043 514.337 295.946 514.479C295.853 514.621 295.803 514.787 295.797 514.977V516.375C295.797 516.585 295.841 516.773 295.929 516.938C296.017 517.102 296.144 517.232 296.309 517.325C296.473 517.419 296.672 517.466 296.905 517.466C297.067 517.466 297.215 517.443 297.348 517.398C297.485 517.352 297.601 517.287 297.698 517.202C297.794 517.114 297.865 517.009 297.911 516.886H300.059C299.985 517.341 299.81 517.736 299.534 518.071C299.259 518.403 298.894 518.662 298.439 518.847C297.988 519.028 297.459 519.119 296.854 519.119ZM301.018 519V512.455H303.303V513.699H303.371C303.49 513.239 303.679 512.902 303.938 512.689C304.199 512.476 304.504 512.369 304.854 512.369C304.956 512.369 305.057 512.378 305.156 512.395C305.259 512.409 305.357 512.43 305.45 512.459V514.466C305.334 514.426 305.19 514.396 305.02 514.376C304.849 514.357 304.703 514.347 304.581 514.347C304.351 514.347 304.143 514.399 303.959 514.504C303.777 514.607 303.634 514.751 303.528 514.939C303.423 515.124 303.371 515.341 303.371 515.591V519H301.018ZM312.205 514.585H310.04C310.028 514.452 309.982 514.337 309.899 514.24C309.817 514.143 309.71 514.07 309.58 514.018C309.452 513.964 309.31 513.938 309.153 513.938C308.952 513.938 308.778 513.974 308.634 514.048C308.489 514.122 308.418 514.227 308.42 514.364C308.418 514.46 308.459 514.55 308.544 514.632C308.632 514.714 308.801 514.778 309.051 514.824L310.381 515.062C311.051 515.185 311.55 515.391 311.876 515.68C312.206 515.967 312.372 516.352 312.375 516.835C312.372 517.301 312.233 517.706 311.957 518.05C311.685 518.391 311.311 518.655 310.837 518.842C310.365 519.027 309.827 519.119 309.222 519.119C308.222 519.119 307.439 518.915 306.874 518.506C306.311 518.097 305.997 517.557 305.932 516.886H308.267C308.298 517.094 308.401 517.254 308.574 517.368C308.75 517.479 308.972 517.534 309.239 517.534C309.455 517.534 309.632 517.497 309.771 517.423C309.913 517.349 309.986 517.244 309.989 517.108C309.986 516.983 309.923 516.884 309.801 516.81C309.682 516.736 309.494 516.676 309.239 516.631L308.08 516.426C307.412 516.31 306.912 516.088 306.58 515.761C306.247 515.435 306.082 515.014 306.085 514.5C306.082 514.045 306.202 513.661 306.443 513.345C306.688 513.027 307.036 512.786 307.487 512.621C307.942 512.453 308.48 512.369 309.102 512.369C310.048 512.369 310.794 512.565 311.339 512.957C311.888 513.349 312.176 513.892 312.205 514.585ZM317.18 512.455V514.159H312.867V512.455H317.18ZM313.702 510.886H316.055V516.895C316.055 516.986 316.07 517.062 316.102 517.125C316.133 517.185 316.181 517.23 316.246 517.261C316.312 517.29 316.396 517.304 316.498 517.304C316.569 517.304 316.651 517.295 316.745 517.278C316.842 517.261 316.913 517.247 316.958 517.236L317.299 518.889C317.194 518.92 317.043 518.959 316.847 519.004C316.654 519.05 316.424 519.08 316.157 519.094C315.617 519.122 315.164 519.067 314.798 518.928C314.431 518.786 314.156 518.562 313.971 518.259C313.786 517.955 313.697 517.574 313.702 517.116V510.886ZM319.963 519.102C319.546 519.102 319.176 519.034 318.855 518.898C318.537 518.759 318.287 518.548 318.105 518.267C317.924 517.986 317.833 517.628 317.833 517.193C317.833 516.835 317.894 516.53 318.016 516.277C318.138 516.021 318.309 515.812 318.527 515.651C318.746 515.489 319 515.365 319.29 515.28C319.583 515.195 319.898 515.139 320.236 515.114C320.603 515.085 320.897 515.051 321.118 515.011C321.343 514.969 321.505 514.911 321.604 514.837C321.703 514.76 321.753 514.659 321.753 514.534V514.517C321.753 514.347 321.688 514.216 321.557 514.125C321.426 514.034 321.259 513.989 321.054 513.989C320.83 513.989 320.647 514.038 320.505 514.138C320.365 514.234 320.282 514.384 320.253 514.585H318.088C318.117 514.187 318.243 513.821 318.468 513.486C318.695 513.148 319.026 512.878 319.461 512.676C319.895 512.472 320.438 512.369 321.088 512.369C321.557 512.369 321.978 512.425 322.35 512.536C322.722 512.643 323.039 512.795 323.3 512.991C323.561 513.185 323.76 513.412 323.897 513.673C324.036 513.932 324.105 514.213 324.105 514.517V519H321.907V518.08H321.855C321.725 518.324 321.566 518.521 321.378 518.672C321.194 518.822 320.982 518.932 320.743 519C320.507 519.068 320.248 519.102 319.963 519.102ZM320.73 517.619C320.909 517.619 321.077 517.582 321.233 517.509C321.392 517.435 321.522 517.328 321.621 517.189C321.721 517.05 321.77 516.881 321.77 516.682V516.136C321.708 516.162 321.641 516.186 321.57 516.209C321.502 516.232 321.428 516.253 321.348 516.273C321.272 516.293 321.189 516.311 321.101 516.328C321.016 516.345 320.926 516.361 320.833 516.375C320.651 516.403 320.502 516.45 320.385 516.516C320.272 516.578 320.186 516.656 320.13 516.75C320.076 516.841 320.049 516.943 320.049 517.057C320.049 517.239 320.113 517.378 320.24 517.474C320.368 517.571 320.532 517.619 320.73 517.619ZM327.343 517.449L327.36 514.653H327.667L329.252 512.455H331.894L329.235 515.881H328.57L327.343 517.449ZM325.229 519V510.273H327.582V519H325.229ZM329.269 519L327.769 516.409L329.303 514.739L331.962 519H329.269ZM335.374 519.119C334.675 519.119 334.072 518.986 333.567 518.719C333.064 518.449 332.676 518.062 332.403 517.56C332.134 517.054 331.999 516.449 331.999 515.744C331.999 515.068 332.135 514.477 332.408 513.972C332.68 513.466 333.065 513.072 333.562 512.791C334.06 512.51 334.646 512.369 335.322 512.369C335.817 512.369 336.264 512.446 336.665 512.599C337.065 512.753 337.408 512.976 337.692 513.268C337.976 513.558 338.195 513.911 338.348 514.325C338.501 514.74 338.578 515.207 338.578 515.727V516.273H332.732V514.977H336.413C336.411 514.79 336.362 514.625 336.268 514.483C336.178 514.338 336.054 514.226 335.898 514.146C335.744 514.064 335.57 514.023 335.374 514.023C335.183 514.023 335.009 514.064 334.849 514.146C334.69 514.226 334.563 514.337 334.466 514.479C334.372 514.621 334.322 514.787 334.317 514.977V516.375C334.317 516.585 334.361 516.773 334.449 516.938C334.537 517.102 334.663 517.232 334.828 517.325C334.993 517.419 335.192 517.466 335.425 517.466C335.587 517.466 335.734 517.443 335.868 517.398C336.004 517.352 336.121 517.287 336.217 517.202C336.314 517.114 336.385 517.009 336.43 516.886H338.578C338.504 517.341 338.33 517.736 338.054 518.071C337.778 518.403 337.413 518.662 336.959 518.847C336.507 519.028 335.979 519.119 335.374 519.119ZM340.816 519.136C340.487 519.136 340.204 519.021 339.968 518.791C339.735 518.558 339.62 518.276 339.623 517.943C339.62 517.619 339.735 517.342 339.968 517.112C340.204 516.882 340.487 516.767 340.816 516.767C341.129 516.767 341.404 516.882 341.643 517.112C341.885 517.342 342.007 517.619 342.01 517.943C342.007 518.165 341.949 518.366 341.835 518.548C341.724 518.727 341.579 518.871 341.4 518.979C341.221 519.084 341.027 519.136 340.816 519.136ZM346.441 519.119C345.731 519.119 345.123 518.979 344.618 518.697C344.112 518.413 343.724 518.018 343.454 517.513C343.184 517.004 343.049 516.415 343.049 515.744C343.049 515.074 343.184 514.486 343.454 513.98C343.724 513.472 344.112 513.077 344.618 512.795C345.123 512.511 345.731 512.369 346.441 512.369C347.152 512.369 347.76 512.511 348.265 512.795C348.771 513.077 349.159 513.472 349.429 513.98C349.699 514.486 349.833 515.074 349.833 515.744C349.833 516.415 349.699 517.004 349.429 517.513C349.159 518.018 348.771 518.413 348.265 518.697C347.76 518.979 347.152 519.119 346.441 519.119ZM346.458 517.381C346.657 517.381 346.829 517.314 346.974 517.18C347.119 517.047 347.231 516.857 347.311 516.609C347.39 516.362 347.43 516.068 347.43 515.727C347.43 515.384 347.39 515.089 347.311 514.845C347.231 514.598 347.119 514.408 346.974 514.274C346.829 514.141 346.657 514.074 346.458 514.074C346.248 514.074 346.068 514.141 345.917 514.274C345.767 514.408 345.652 514.598 345.572 514.845C345.493 515.089 345.453 515.384 345.453 515.727C345.453 516.068 345.493 516.362 345.572 516.609C345.652 516.857 345.767 517.047 345.917 517.18C346.068 517.314 346.248 517.381 346.458 517.381ZM350.788 519V512.455H353.072V513.699H353.14C353.26 513.239 353.449 512.902 353.707 512.689C353.968 512.476 354.274 512.369 354.623 512.369C354.725 512.369 354.826 512.378 354.926 512.395C355.028 512.409 355.126 512.43 355.22 512.459V514.466C355.103 514.426 354.96 514.396 354.789 514.376C354.619 514.357 354.473 514.347 354.35 514.347C354.12 514.347 353.913 514.399 353.728 514.504C353.547 514.607 353.403 514.751 353.298 514.939C353.193 515.124 353.14 515.341 353.14 515.591V519H350.788ZM358.77 521.591C358.113 521.591 357.551 521.497 357.082 521.31C356.616 521.125 356.254 520.869 355.995 520.543C355.74 520.219 355.596 519.847 355.565 519.426H357.832C357.855 519.565 357.912 519.678 358.002 519.763C358.093 519.848 358.21 519.909 358.352 519.946C358.497 519.986 358.659 520.006 358.838 520.006C359.142 520.006 359.393 519.932 359.592 519.784C359.794 519.636 359.895 519.369 359.895 518.983V517.875H359.826C359.741 518.097 359.61 518.286 359.434 518.442C359.258 518.595 359.047 518.713 358.799 518.795C358.552 518.875 358.281 518.915 357.985 518.915C357.52 518.915 357.091 518.807 356.699 518.591C356.309 518.375 355.997 518.033 355.761 517.564C355.528 517.095 355.412 516.483 355.412 515.727C355.412 514.937 355.534 514.295 355.778 513.801C356.025 513.307 356.343 512.945 356.733 512.714C357.125 512.484 357.537 512.369 357.968 512.369C358.292 512.369 358.576 512.426 358.821 512.54C359.065 512.651 359.27 512.8 359.434 512.987C359.599 513.172 359.724 513.375 359.809 513.597H359.86V512.455H362.213V518.983C362.213 519.537 362.069 520.007 361.782 520.393C361.498 520.783 361.098 521.08 360.581 521.284C360.064 521.489 359.46 521.591 358.77 521.591ZM358.855 517.244C359.071 517.244 359.255 517.185 359.409 517.065C359.565 516.943 359.684 516.77 359.767 516.545C359.852 516.318 359.895 516.045 359.895 515.727C359.895 515.403 359.852 515.126 359.767 514.896C359.684 514.663 359.565 514.486 359.409 514.364C359.255 514.239 359.071 514.176 358.855 514.176C358.639 514.176 358.454 514.239 358.301 514.364C358.15 514.486 358.034 514.663 357.951 514.896C357.872 515.126 357.832 515.403 357.832 515.727C357.832 516.051 357.872 516.327 357.951 516.554C358.034 516.778 358.15 516.95 358.301 517.07C358.454 517.186 358.639 517.244 358.855 517.244Z" fill="white"/>
<defs>
<filter id="filter0_f_704_1301" x="101" y="311" width="92" height="92" filterUnits="userSpaceOnUse" color-interpolation-filters="sRGB">
<feFlood flood-opacity="0" result="BackgroundImageFix"/>
<feBlend mode="normal" in="SourceGraphic" in2="BackgroundImageFix" result="shape"/>
<feGaussianBlur stdDeviation="3" result="effect1_foregroundBlur_704_1301"/>
</filter>
<filter id="filter1_f_704_1301" x="43" y="512" width="92" height="92" filterUnits="userSpaceOnUse" color-interpolation-filters="sRGB">
<feFlood flood-opacity="0" result="BackgroundImageFix"/>
<feBlend mode="normal" in="SourceGraphic" in2="BackgroundImageFix" result="shape"/>
<feGaussianBlur stdDeviation="3" result="effect1_foregroundBlur_704_1301"/>
</filter>
<filter id="filter2_f_704_1301" x="463" y="311" width="92" height="92" filterUnits="userSpaceOnUse" color-interpolation-filters="sRGB">
<feFlood flood-opacity="0" result="BackgroundImageFix"/>
<feBlend mode="normal" in="SourceGraphic" in2="BackgroundImageFix" result="shape"/>
<feGaussianBlur stdDeviation="3" result="effect1_foregroundBlur_704_1301"/>
</filter>
<filter id="filter3_f_704_1301" x="279" y="726" width="92" height="92" filterUnits="userSpaceOnUse" color-interpolation-filters="sRGB">
<feFlood flood-opacity="0" result="BackgroundImageFix"/>
<feBlend mode="normal" in="SourceGraphic" in2="BackgroundImageFix" result="shape"/>
<feGaussianBlur stdDeviation="3" result="effect1_foregroundBlur_704_1301"/>
</filter>
<filter id="filter4_f_704_1301" x="256" y="75" width="92" height="92" filterUnits="userSpaceOnUse" color-interpolation-filters="sRGB">
<feFlood flood-opacity="0" result="BackgroundImageFix"/>
<feBlend mode="normal" in="SourceGraphic" in2="BackgroundImageFix" result="shape"/>
<feGaussianBlur stdDeviation="3" result="effect1_foregroundBlur_704_1301"/>
</filter>
<filter id="filter5_f_704_1301" x="84" y="46" width="92" height="92" filterUnits="userSpaceOnUse" color-interpolation-filters="sRGB">
<feFlood flood-opacity="0" result="BackgroundImageFix"/>
<feBlend mode="normal" in="SourceGraphic" in2="BackgroundImageFix" result="shape"/>
<feGaussianBlur stdDeviation="3" result="effect1_foregroundBlur_704_1301"/>
</filter>
<filter id="filter6_f_704_1301" x="463" y="501" width="92" height="92" filterUnits="userSpaceOnUse" color-interpolation-filters="sRGB">
<feFlood flood-opacity="0" result="BackgroundImageFix"/>
<feBlend mode="normal" in="SourceGraphic" in2="BackgroundImageFix" result="shape"/>
<feGaussianBlur stdDeviation="3" result="effect1_foregroundBlur_704_1301"/>
</filter>
<filter id="filter7_f_704_1301" x="43" y="763" width="92" height="92" filterUnits="userSpaceOnUse" color-interpolation-filters="sRGB">
<feFlood flood-opacity="0" result="BackgroundImageFix"/>
<feBlend mode="normal" in="SourceGraphic" in2="BackgroundImageFix" result="shape"/>
<feGaussianBlur stdDeviation="3" result="effect1_foregroundBlur_704_1301"/>
</filter>
</defs>
</svg>
