<svg  viewBox="0 0 170 152" fill="none" xmlns="http://www.w3.org/2000/svg">
<path d="M121.24 109.588H130.854L114.115 151.111H103.018L86.2793 109.588H95.8926L108.531 141.104L121.24 109.588Z" fill="#FF433E"/>
<path d="M8.7509 101H0V151.118H8.7509V101Z" fill="#FF433E"/>
<path d="M32.7139 151.125L13.5156 126.059L32.7139 101.007H43.6985L24.7688 126.059L43.6985 151.125H32.7139Z" fill="#FF433E"/>
<path d="M64.6623 108.487C55.0773 108.487 47.8532 113.78 47.3301 121.641L47.2736 122.559H55.869L56.0104 121.881C56.802 118.183 59.8274 116.151 64.5068 116.151C69.5962 116.151 72.5084 118.706 72.5084 123.166V125.734L61.7359 126.341C52.0378 126.906 46.1709 131.648 46.1709 139.015C46.1709 146.778 52.0095 152 60.5908 152C65.7084 152 69.4407 150.603 72.4801 147.498V151.308H81.2028V122.516C81.1886 113.992 74.6007 108.487 64.6623 108.487ZM72.5084 132.495V135.078C71.9429 140.709 68.0411 144.252 62.0469 144.548C59.7426 144.661 57.7492 144.04 56.4345 142.798C55.4025 141.824 54.8652 140.525 54.8652 139.044C54.8652 135.741 57.6927 133.652 62.6265 133.342L72.5084 132.495Z" fill="#FF433E"/>
<path d="M153.119 108.487C143.534 108.487 136.31 113.78 135.787 121.641L135.731 122.559H144.326L144.467 121.881C145.259 118.183 148.284 116.151 152.964 116.151C158.053 116.151 160.965 118.706 160.965 123.166V125.734L150.193 126.341C140.495 126.906 134.628 131.648 134.628 139.015C134.628 146.778 140.467 152 149.048 152C154.165 152 157.898 150.603 160.937 147.498V151.308H169.66V122.516C169.646 113.992 163.058 108.487 153.119 108.487ZM160.965 132.495V135.078C160.4 140.709 156.498 144.252 150.504 144.548C148.2 144.661 146.206 144.04 144.892 142.798C143.859 141.824 143.322 140.525 143.322 139.044C143.322 135.741 146.15 133.652 151.084 133.342L160.965 132.495Z" fill="#FF433E"/>
<path d="M125.61 1L90.2969 26.9495L96.7174 11.7008L125.61 1Z" fill="#E17726" stroke="#E17726"/>
<path d="M44.5488 1L79.3265 27.217L73.1735 11.7008L44.5488 1Z" fill="#E27625" stroke="#E27625"/>
<path d="M113.035 61.4619L103.672 75.6405L123.736 81.2584L129.354 61.7294L113.035 61.4619Z" fill="#E27625" stroke="#E27625"/>
<path d="M40.8047 61.7294L46.4226 81.2584L66.4867 75.6405L57.1235 61.4619L40.8047 61.7294Z" fill="#E27625" stroke="#E27625"/>
<path d="M65.4148 37.1165L59.7969 45.4096L79.5934 46.2122L79.0584 24.8105L65.4148 37.1165Z" fill="#E27625" stroke="#E27625"/>
<path d="M104.743 37.1165L90.8319 24.8105L90.2969 46.4797L110.093 45.6772L104.743 37.1165Z" fill="#E27625" stroke="#E27625"/>
<path d="M66.4863 75.6386L78.5248 69.7532L68.0915 61.7275L66.4863 75.6386Z" fill="#E27625" stroke="#E27625"/>
<path d="M91.6338 69.7532L103.672 75.6386L102.067 61.7275L91.6338 69.7532Z" fill="#E27625" stroke="#E27625"/>
<path d="M103.672 75.6394L91.6338 69.7539L92.7039 77.512V80.7223L103.672 75.6394Z" fill="#D5BFB2" stroke="#D5BFB2"/>
<path d="M66.4863 75.6404L77.7222 80.9908V77.7806L78.7923 70.0225L66.4863 75.6404Z" fill="#D5BFB2" stroke="#D5BFB2"/>
<path d="M77.7215 56.6452L67.8232 53.7024L74.7788 50.4922L77.7215 56.6452Z" fill="#233447" stroke="#233447"/>
<path d="M92.167 56.6452L95.1097 50.4922L102.065 53.7024L92.167 56.6452Z" fill="#233447" stroke="#233447"/>
<path d="M66.4863 75.6405L68.0914 61.4619L57.123 61.7294L66.4863 75.6405Z" fill="#CC6228" stroke="#CC6228"/>
<path d="M101.799 61.4619L103.404 75.6405L112.767 61.7294L101.799 61.4619Z" fill="#CC6228" stroke="#CC6228"/>
<path d="M110.359 45.6758L90.5625 46.4783L92.4351 56.6441L95.3779 50.4912L102.333 53.7014L110.359 45.6758Z" fill="#CC6228" stroke="#CC6228"/>
<path d="M67.8225 53.7014L74.778 50.4912L77.7208 56.6441L79.5934 46.4783L59.7969 45.6758L67.8225 53.7014Z" fill="#CC6228" stroke="#CC6228"/>
<path d="M59.7969 45.6758L68.09 61.9945L67.8225 53.9689L59.7969 45.6758Z" fill="#E27525" stroke="#E27525"/>
<path d="M102.333 53.7033L102.065 61.7289L110.359 45.4102L102.333 53.7033Z" fill="#E27525" stroke="#E27525"/>
<path d="M79.5943 46.4785L77.7217 56.6443L80.1294 68.6827L80.6644 52.899L79.5943 46.4785Z" fill="#E27525" stroke="#E27525"/>
<path d="M90.2947 46.4785L89.2246 52.899L89.7597 68.6827L92.1673 56.6443L90.2947 46.4785Z" fill="#E27525" stroke="#E27525"/>
<path d="M92.1684 56.6449L89.7607 68.6833L91.3659 69.7534L101.799 61.7278L102.067 53.7021L92.1684 56.6449Z" fill="#F5841F" stroke="#F5841F"/>
<path d="M67.8232 53.7021L68.0908 61.7278L78.5241 69.7534L80.1292 68.6833L77.7215 56.6449L67.8232 53.7021Z" fill="#F5841F" stroke="#F5841F"/>
<path d="M92.4358 80.9901V77.7798L91.6333 76.9773H78.2572L77.4547 77.7798V80.9901L66.4863 75.6396L70.4991 78.8499L78.2572 84.2003H91.9008L99.9264 78.8499L103.672 75.6396L92.4358 80.9901Z" fill="#C0AC9D" stroke="#C0AC9D"/>
<path d="M91.6317 69.7547L90.0266 68.6846H80.1283L78.5232 69.7547L77.4531 77.5128L78.2557 76.7102H91.6317L92.4343 77.5128L91.6317 69.7547Z" fill="#161616" stroke="#161616"/>
<path d="M126.947 28.8222L129.889 14.376L125.341 1L91.6338 26.1469L104.742 37.1153L123.201 42.4657L127.214 37.6503L125.341 36.5803L128.284 33.905L126.144 32.2999L129.087 30.1598L126.947 28.8222Z" fill="#763E1A" stroke="#763E1A"/>
<path d="M40 14.376L42.9427 28.8222L41.0701 30.1598L44.0128 32.2999L41.8726 33.905L44.8154 36.5803L42.9427 37.9179L46.9555 42.7332L65.4145 37.3828L78.523 26.4145L44.5479 1L40 14.376Z" fill="#763E1A" stroke="#763E1A"/>
<path d="M123.2 42.4656L104.741 37.1152L110.359 45.4084L102.065 61.7271L113.034 61.4596H129.353L123.2 42.4656Z" fill="#F5841F" stroke="#F5841F"/>
<path d="M65.4166 37.1152L46.9577 42.4656L40.8047 61.4596H57.1235L68.0918 61.7271L59.7987 45.4084L65.4166 37.1152Z" fill="#F5841F" stroke="#F5841F"/>
<path d="M90.2961 46.4789L91.3662 26.1473L96.7166 11.7012H72.9072L78.2576 26.1473L79.3277 46.4789L79.8628 52.8994V68.6831H89.761V52.8994L90.2961 46.4789Z" fill="#F5841F" stroke="#F5841F"/>
</svg>
